<mxfile host="app.diagrams.net" modified="2024-04-11T08:20:29.765Z" agent="Mozilla/5.0 (Windows NT 10.0; Win64; x64) AppleWebKit/537.36 (KHTML, like Gecko) Chrome/123.0.0.0 Safari/537.36 Edg/123.0.0.0" etag="vDJXU0LzHpNrZfuETNeM" version="24.2.2" type="github">
  <diagram name="Page-1" id="Syd85vtcyYVbc08jkSv1">
    <mxGraphModel dx="4438" dy="4290" grid="1" gridSize="10" guides="1" tooltips="1" connect="1" arrows="1" fold="1" page="0" pageScale="1" pageWidth="1169" pageHeight="827" math="0" shadow="0">
      <root>
        <mxCell id="0" />
        <mxCell id="1" parent="0" />
        <mxCell id="ih_uVpgDDXR5YDSlljtD-79" value="" style="group" vertex="1" connectable="0" parent="1">
          <mxGeometry x="-240" y="-1720" width="2080" height="1650" as="geometry" />
        </mxCell>
        <mxCell id="ih_uVpgDDXR5YDSlljtD-75" value="" style="rounded=0;whiteSpace=wrap;html=1;fillColor=default;" vertex="1" parent="ih_uVpgDDXR5YDSlljtD-79">
          <mxGeometry x="32" width="2048" height="1650" as="geometry" />
        </mxCell>
        <mxCell id="GBS9pjqPEXnVsBJEZC-B-169" value="&lt;font style=&quot;font-size: 26px;&quot;&gt;&amp;nbsp;XXXXXX&lt;/font&gt;" style="rounded=0;whiteSpace=wrap;html=1;align=left;" parent="ih_uVpgDDXR5YDSlljtD-79" vertex="1">
          <mxGeometry x="347.33" y="120" width="1412.67" height="60" as="geometry" />
        </mxCell>
        <mxCell id="GBS9pjqPEXnVsBJEZC-B-170" value="&lt;span style=&quot;font-size: 26px;&quot;&gt;&amp;nbsp;XXXXXX&lt;/span&gt;" style="rounded=0;whiteSpace=wrap;html=1;align=left;" parent="ih_uVpgDDXR5YDSlljtD-79" vertex="1">
          <mxGeometry x="347.33" y="200" width="1412.67" height="60" as="geometry" />
        </mxCell>
        <mxCell id="GBS9pjqPEXnVsBJEZC-B-171" value="&lt;span style=&quot;font-size: 26px;&quot;&gt;&amp;nbsp;XXXXXX&lt;/span&gt;" style="rounded=0;whiteSpace=wrap;html=1;align=left;" parent="ih_uVpgDDXR5YDSlljtD-79" vertex="1">
          <mxGeometry x="347.33" y="280" width="1412.67" height="60" as="geometry" />
        </mxCell>
        <mxCell id="GBS9pjqPEXnVsBJEZC-B-172" value="Production Order" style="text;html=1;align=right;verticalAlign=middle;whiteSpace=wrap;rounded=0;fontSize=26;" parent="ih_uVpgDDXR5YDSlljtD-79" vertex="1">
          <mxGeometry x="80.66666666666667" y="135" width="256" height="30" as="geometry" />
        </mxCell>
        <mxCell id="GBS9pjqPEXnVsBJEZC-B-173" value="Resource" style="text;html=1;align=right;verticalAlign=middle;whiteSpace=wrap;rounded=0;fontSize=26;" parent="ih_uVpgDDXR5YDSlljtD-79" vertex="1">
          <mxGeometry x="80.66666666666667" y="295" width="256" height="30" as="geometry" />
        </mxCell>
        <mxCell id="GBS9pjqPEXnVsBJEZC-B-174" value="Step" style="text;html=1;align=right;verticalAlign=middle;whiteSpace=wrap;rounded=0;fontSize=26;" parent="ih_uVpgDDXR5YDSlljtD-79" vertex="1">
          <mxGeometry x="70" y="215" width="266.6666666666667" height="30" as="geometry" />
        </mxCell>
        <mxCell id="GBS9pjqPEXnVsBJEZC-B-220" value="" style="endArrow=none;html=1;rounded=0;entryX=1;entryY=0.25;entryDx=0;entryDy=0;" parent="ih_uVpgDDXR5YDSlljtD-79" edge="1">
          <mxGeometry width="50" height="50" relative="1" as="geometry">
            <mxPoint x="32" y="400" as="sourcePoint" />
            <mxPoint x="2080" y="400" as="targetPoint" />
          </mxGeometry>
        </mxCell>
        <mxCell id="ih_uVpgDDXR5YDSlljtD-76" value="" style="endArrow=none;html=1;rounded=0;exitX=0;exitY=0.25;exitDx=0;exitDy=0;" edge="1" parent="ih_uVpgDDXR5YDSlljtD-79">
          <mxGeometry width="50" height="50" relative="1" as="geometry">
            <mxPoint x="32" y="80" as="sourcePoint" />
            <mxPoint x="2080" y="80" as="targetPoint" />
          </mxGeometry>
        </mxCell>
        <mxCell id="ih_uVpgDDXR5YDSlljtD-77" value="&lt;font style=&quot;font-size: 32px;&quot;&gt;&lt;b&gt;Attach Consumables&lt;/b&gt;&lt;/font&gt;" style="text;html=1;align=center;verticalAlign=middle;whiteSpace=wrap;rounded=0;" vertex="1" parent="ih_uVpgDDXR5YDSlljtD-79">
          <mxGeometry x="119.99666666666667" y="30" width="362.6666666666667" height="30" as="geometry" />
        </mxCell>
        <mxCell id="ih_uVpgDDXR5YDSlljtD-78" value="" style="group" vertex="1" connectable="0" parent="ih_uVpgDDXR5YDSlljtD-79">
          <mxGeometry x="1800.0033333333333" y="120" width="170.66666666666666" height="273" as="geometry" />
        </mxCell>
        <mxCell id="GBS9pjqPEXnVsBJEZC-B-175" value="&lt;font style=&quot;font-size: 19px;&quot;&gt;&amp;nbsp;&lt;/font&gt;&lt;div&gt;&lt;font style=&quot;font-size: 19px;&quot;&gt;&lt;br&gt;&lt;/font&gt;&lt;/div&gt;&lt;div&gt;&lt;font style=&quot;font-size: 19px;&quot;&gt;Search&lt;/font&gt;&lt;/div&gt;" style="rounded=1;whiteSpace=wrap;html=1;" parent="ih_uVpgDDXR5YDSlljtD-78" vertex="1">
          <mxGeometry width="170.66666666666666" height="220" as="geometry" />
        </mxCell>
        <mxCell id="ih_uVpgDDXR5YDSlljtD-5" value="" style="sketch=0;pointerEvents=1;shadow=0;dashed=0;html=1;strokeColor=none;fillColor=#505050;labelPosition=center;verticalLabelPosition=bottom;verticalAlign=top;outlineConnect=0;align=center;shape=mxgraph.office.concepts.search;" vertex="1" parent="ih_uVpgDDXR5YDSlljtD-78">
          <mxGeometry x="64" y="70" width="42.666666666666664" height="39" as="geometry" />
        </mxCell>
        <mxCell id="ih_uVpgDDXR5YDSlljtD-70" value="" style="shape=image;verticalLabelPosition=bottom;labelBackgroundColor=default;verticalAlign=top;aspect=fixed;imageAspect=0;image=data:image/svg+xml,PHN2ZyB4bWxucz0iaHR0cDovL3d3dy53My5vcmcvMjAwMC9zdmciIHZpZXdCb3g9IjAgMCAxMDIuNTMgMTIyLjg4IiBkYXRhLW5hbWU9IkxheWVyIDEiIGlkPSJMYXllcl8xIj48dGl0bGU+bW91c2UtY3Vyc29yPC90aXRsZT48cGF0aCBkPSJNNzYuNywxMjIuNDVhNC42Miw0LjYyLDAsMCwxLTMuMTEuMjgsNC4zNCw0LjM0LDAsMCwxLTIuNjYtMkw1OS43OCwxMDEuNTFsLTEwLjYxLDExLjlBMTMuMzcsMTMuMzcsMCwwLDEsNDQuNCwxMTdhNi4yNyw2LjI3LDAsMCwxLTMuNjMuNDIsNC44Miw0LjgyLDAsMCwxLTMuMTQtMi4yNiw4Ljc0LDguNzQsMCwwLDEtMS4xOC00bC01LjkxLTc3YTEuMDksMS4wOSwwLDAsMSwwLS4xOCwzLjIyLDMuMjIsMCwwLDEsMS4zLTIuNjUsMS44NSwxLjg1LDAsMCwxLC42My0uMzEsMy4wOSwzLjA5LDAsMCwxLDEuMzQtLjE1LDMuMzQsMy4zNCwwLDAsMSwxLjIzLjM5LDEuNzYsMS43NiwwLDAsMSwuMzcuMjNMOTksNzVhOC44Niw4Ljg2LDAsMCwxLDIuOTEsMyw0Ljc5LDQuNzksMCwwLDEsLjM4LDMuODUsNi4yOSw2LjI5LDAsMCwxLTIuMTgsMi45MywxMy4zNCwxMy4zNCwwLDAsMS01LjQ3LDIuMzVsLS4wNywwTDc5LDkwLjM4LDkwLjEsMTA5LjY2YTQuMzIsNC4zMiwwLDAsMSwuNDEsMy4yOSw0LjY2LDQuNjYsMCwwLDEtMS45NCwyLjY3bC0uMTMuMDctMTEuNSw2LjY0YS45LjksMCwwLDEtLjI0LjEyWm0tMi4wOC0zLjYyYS42Mi42MiwwLDAsMCwuMzMsMCwuMzQuMzQsMCwwLDEsLjEyLS4wNmwxMS4zNS02LjU1YS41OC41OCwwLDAsMCwuMi0uMzEuMzUuMzUsMCwwLDAsMC0uMjVsLTEzLTIyLjIyaDBhMi4wNSwyLjA1LDAsMCwxLS4yMi0uNkEyLDIsMCwwLDEsNzUsODYuNDZsMTguMjYtMy4yNGguMDdhOS40MSw5LjQxLDAsMCwwLDMuOC0xLjU4LDIuMzYsMi4zNiwwLDAsMCwuODMtMSwuOTEuOTEsMCwwLDAtLjExLS43Myw1LDUsMCwwLDAtMS42MS0xLjU4bC02MS00MS45Mkw0MSwxMTBhNC44Niw0Ljg2LDAsMCwwLC41NywyLjE5Ljg5Ljg5LDAsMCwwLC41Ny40NSwyLjIyLDIuMjIsMCwwLDAsMS4yOS0uMjEsOS4xNiw5LjE2LDAsMCwwLDMuMjYtMi41bDExLjM3LTEzLjdoMGEyLjE5LDIuMTksMCwwLDEsLjUtLjQxLDIsMiwwLDAsMSwyLjc1Ljc0bDEzLjA5LDIyLjE2YS4zNC4zNCwwLDAsMCwuMjEuMTJabS40NC0uMDZhMiwyLDAsMCwxLC44OC0uMjFsLS44OC4yMVpNMjkuNTIsMTUuMzdhMTQuMTEsMTQuMTEsMCwwLDEsMTAsNC4xNGMuMjcuMjcuNTIuNTQuNzYuODJsLS40MS0uMTNhMTUuMjMsMTUuMjMsMCwwLDAtMi4zNS0uNTRjLS4yNi0uMDUtLjUzLS4wOS0uNzktLjEyYTE2LjQxLDE2LjQxLDAsMCwwLTMuNjQsMGwtLjUxLjA3YTEwLjQyLDEwLjQyLDAsMCwwLTEwLjQxLDIuNTdoMGExMC4zMywxMC4zMywwLDAsMC0zLDcuMzQsMTAuNDMsMTAuNDMsMCwwLDEtLjE4LDMsMTYsMTYsMCwwLDAtLjI3LDIuNTYsMTIuMzEsMTIuMzEsMCwwLDAsMCwxLjkybC4xNCwxLjc4YTE0LjE2LDE0LjE2LDAsMCwxLC42Ny0xOS4yOWgwYTE0LjEsMTQuMSwwLDAsMSwxMC00LjE0Wk0yOS41MiwwQTI5LjUzLDI5LjUzLDAsMCwxLDU5LjA1LDI5LjUyYzAsMSwwLDEuOTItLjE0LDIuODZsLTQuMzQtM0EyNSwyNSwwLDEsMCwxOS45LDUyLjY2bC4zOCw0LjkxQTI5LjUzLDI5LjUzLDAsMCwxLDI5LjUyLDBaIi8+PC9zdmc+;" vertex="1" parent="ih_uVpgDDXR5YDSlljtD-78">
          <mxGeometry x="30.4" y="150" width="103" height="123" as="geometry" />
        </mxCell>
        <mxCell id="ih_uVpgDDXR5YDSlljtD-68" style="edgeStyle=orthogonalEdgeStyle;rounded=0;orthogonalLoop=1;jettySize=auto;html=1;strokeColor=#CC99FF;strokeWidth=4;exitX=0.5;exitY=1;exitDx=0;exitDy=0;entryX=0;entryY=0.5;entryDx=0;entryDy=0;" edge="1" parent="1" source="ih_uVpgDDXR5YDSlljtD-70" target="ih_uVpgDDXR5YDSlljtD-131">
          <mxGeometry relative="1" as="geometry">
            <mxPoint x="2242" y="-895" as="targetPoint" />
          </mxGeometry>
        </mxCell>
        <mxCell id="ih_uVpgDDXR5YDSlljtD-130" value="" style="group" vertex="1" connectable="0" parent="1">
          <mxGeometry x="2080" y="-1720" width="2080" height="1650" as="geometry" />
        </mxCell>
        <mxCell id="ih_uVpgDDXR5YDSlljtD-131" value="" style="rounded=0;whiteSpace=wrap;html=1;fillColor=default;" vertex="1" parent="ih_uVpgDDXR5YDSlljtD-130">
          <mxGeometry x="32" width="2048" height="1650" as="geometry" />
        </mxCell>
        <mxCell id="ih_uVpgDDXR5YDSlljtD-132" value="&lt;font style=&quot;font-size: 26px;&quot;&gt;&amp;nbsp;XXXXXX&lt;/font&gt;" style="rounded=0;whiteSpace=wrap;html=1;align=left;" vertex="1" parent="ih_uVpgDDXR5YDSlljtD-130">
          <mxGeometry x="347.33" y="120" width="1412.67" height="60" as="geometry" />
        </mxCell>
        <mxCell id="ih_uVpgDDXR5YDSlljtD-133" value="&lt;span style=&quot;font-size: 26px;&quot;&gt;&amp;nbsp;XXXXXX&lt;/span&gt;" style="rounded=0;whiteSpace=wrap;html=1;align=left;" vertex="1" parent="ih_uVpgDDXR5YDSlljtD-130">
          <mxGeometry x="347.33" y="200" width="1412.67" height="60" as="geometry" />
        </mxCell>
        <mxCell id="ih_uVpgDDXR5YDSlljtD-134" value="&lt;span style=&quot;font-size: 26px;&quot;&gt;&amp;nbsp;XXXXXX&lt;/span&gt;" style="rounded=0;whiteSpace=wrap;html=1;align=left;" vertex="1" parent="ih_uVpgDDXR5YDSlljtD-130">
          <mxGeometry x="347.33" y="280" width="1412.67" height="60" as="geometry" />
        </mxCell>
        <mxCell id="ih_uVpgDDXR5YDSlljtD-135" value="Production Order" style="text;html=1;align=right;verticalAlign=middle;whiteSpace=wrap;rounded=0;fontSize=26;" vertex="1" parent="ih_uVpgDDXR5YDSlljtD-130">
          <mxGeometry x="80.66666666666667" y="135" width="256" height="30" as="geometry" />
        </mxCell>
        <mxCell id="ih_uVpgDDXR5YDSlljtD-136" value="Resource" style="text;html=1;align=right;verticalAlign=middle;whiteSpace=wrap;rounded=0;fontSize=26;" vertex="1" parent="ih_uVpgDDXR5YDSlljtD-130">
          <mxGeometry x="80.66666666666667" y="295" width="256" height="30" as="geometry" />
        </mxCell>
        <mxCell id="ih_uVpgDDXR5YDSlljtD-137" value="Step" style="text;html=1;align=right;verticalAlign=middle;whiteSpace=wrap;rounded=0;fontSize=26;" vertex="1" parent="ih_uVpgDDXR5YDSlljtD-130">
          <mxGeometry x="70" y="215" width="266.6666666666667" height="30" as="geometry" />
        </mxCell>
        <mxCell id="ih_uVpgDDXR5YDSlljtD-138" value="" style="endArrow=none;html=1;rounded=0;entryX=1;entryY=0.25;entryDx=0;entryDy=0;" edge="1" parent="ih_uVpgDDXR5YDSlljtD-130">
          <mxGeometry width="50" height="50" relative="1" as="geometry">
            <mxPoint x="32" y="400" as="sourcePoint" />
            <mxPoint x="2080" y="400" as="targetPoint" />
          </mxGeometry>
        </mxCell>
        <mxCell id="ih_uVpgDDXR5YDSlljtD-139" value="" style="endArrow=none;html=1;rounded=0;exitX=0;exitY=0.25;exitDx=0;exitDy=0;" edge="1" parent="ih_uVpgDDXR5YDSlljtD-130">
          <mxGeometry width="50" height="50" relative="1" as="geometry">
            <mxPoint x="32" y="80" as="sourcePoint" />
            <mxPoint x="2080" y="80" as="targetPoint" />
          </mxGeometry>
        </mxCell>
        <mxCell id="ih_uVpgDDXR5YDSlljtD-140" value="&lt;font style=&quot;font-size: 32px;&quot;&gt;&lt;b&gt;Attach Consumables&lt;/b&gt;&lt;/font&gt;" style="text;html=1;align=center;verticalAlign=middle;whiteSpace=wrap;rounded=0;" vertex="1" parent="ih_uVpgDDXR5YDSlljtD-130">
          <mxGeometry x="119.99666666666667" y="30" width="362.6666666666667" height="30" as="geometry" />
        </mxCell>
        <mxCell id="ih_uVpgDDXR5YDSlljtD-141" value="" style="group" vertex="1" connectable="0" parent="ih_uVpgDDXR5YDSlljtD-130">
          <mxGeometry x="1800.0033333333333" y="120" width="170.66666666666666" height="273" as="geometry" />
        </mxCell>
        <mxCell id="ih_uVpgDDXR5YDSlljtD-142" value="&lt;font style=&quot;font-size: 19px;&quot;&gt;&amp;nbsp;&lt;/font&gt;&lt;div&gt;&lt;font style=&quot;font-size: 19px;&quot;&gt;&lt;br&gt;&lt;/font&gt;&lt;/div&gt;&lt;div&gt;&lt;font style=&quot;font-size: 19px;&quot;&gt;Search&lt;/font&gt;&lt;/div&gt;" style="rounded=1;whiteSpace=wrap;html=1;" vertex="1" parent="ih_uVpgDDXR5YDSlljtD-141">
          <mxGeometry width="170.66666666666666" height="220" as="geometry" />
        </mxCell>
        <mxCell id="ih_uVpgDDXR5YDSlljtD-143" value="" style="sketch=0;pointerEvents=1;shadow=0;dashed=0;html=1;strokeColor=none;fillColor=#505050;labelPosition=center;verticalLabelPosition=bottom;verticalAlign=top;outlineConnect=0;align=center;shape=mxgraph.office.concepts.search;" vertex="1" parent="ih_uVpgDDXR5YDSlljtD-141">
          <mxGeometry x="64" y="70" width="42.666666666666664" height="39" as="geometry" />
        </mxCell>
        <mxCell id="ih_uVpgDDXR5YDSlljtD-145" value="" style="group" vertex="1" connectable="0" parent="ih_uVpgDDXR5YDSlljtD-130">
          <mxGeometry x="120" y="571.5" width="1850" height="507" as="geometry" />
        </mxCell>
        <mxCell id="ih_uVpgDDXR5YDSlljtD-146" value="" style="shape=table;startSize=0;container=1;collapsible=0;childLayout=tableLayout;fontSize=16;" vertex="1" parent="ih_uVpgDDXR5YDSlljtD-145">
          <mxGeometry width="1850" height="398.5" as="geometry" />
        </mxCell>
        <mxCell id="ih_uVpgDDXR5YDSlljtD-147" value="" style="shape=tableRow;horizontal=0;startSize=0;swimlaneHead=0;swimlaneBody=0;strokeColor=inherit;top=0;left=0;bottom=0;right=0;collapsible=0;dropTarget=0;fillColor=none;points=[[0,0.5],[1,0.5]];portConstraint=eastwest;fontSize=16;" vertex="1" parent="ih_uVpgDDXR5YDSlljtD-146">
          <mxGeometry width="1850" height="99" as="geometry" />
        </mxCell>
        <mxCell id="ih_uVpgDDXR5YDSlljtD-148" value="&lt;font style=&quot;font-size: 26px;&quot;&gt;Part Number&lt;/font&gt;" style="shape=partialRectangle;html=1;whiteSpace=wrap;connectable=0;strokeColor=inherit;overflow=hidden;fillColor=none;top=0;left=0;bottom=0;right=0;pointerEvents=1;fontSize=16;" vertex="1" parent="ih_uVpgDDXR5YDSlljtD-147">
          <mxGeometry width="308" height="99" as="geometry">
            <mxRectangle width="308" height="99" as="alternateBounds" />
          </mxGeometry>
        </mxCell>
        <mxCell id="ih_uVpgDDXR5YDSlljtD-149" value="&lt;span style=&quot;font-size: 26px;&quot;&gt;Part Number Description&lt;/span&gt;" style="shape=partialRectangle;html=1;whiteSpace=wrap;connectable=0;strokeColor=inherit;overflow=hidden;fillColor=none;top=0;left=0;bottom=0;right=0;pointerEvents=1;fontSize=16;" vertex="1" parent="ih_uVpgDDXR5YDSlljtD-147">
          <mxGeometry x="308" width="309" height="99" as="geometry">
            <mxRectangle width="309" height="99" as="alternateBounds" />
          </mxGeometry>
        </mxCell>
        <mxCell id="ih_uVpgDDXR5YDSlljtD-150" value="&lt;span style=&quot;font-size: 26px;&quot;&gt;Consumable&lt;/span&gt;" style="shape=partialRectangle;html=1;whiteSpace=wrap;connectable=0;strokeColor=inherit;overflow=hidden;fillColor=none;top=0;left=0;bottom=0;right=0;pointerEvents=1;fontSize=16;" vertex="1" parent="ih_uVpgDDXR5YDSlljtD-147">
          <mxGeometry x="617" width="308" height="99" as="geometry">
            <mxRectangle width="308" height="99" as="alternateBounds" />
          </mxGeometry>
        </mxCell>
        <mxCell id="ih_uVpgDDXR5YDSlljtD-151" value="&lt;span style=&quot;font-size: 26px;&quot;&gt;Qty&lt;/span&gt;" style="shape=partialRectangle;html=1;whiteSpace=wrap;connectable=0;strokeColor=inherit;overflow=hidden;fillColor=none;top=0;left=0;bottom=0;right=0;pointerEvents=1;fontSize=16;" vertex="1" parent="ih_uVpgDDXR5YDSlljtD-147">
          <mxGeometry x="925" width="308" height="99" as="geometry">
            <mxRectangle width="308" height="99" as="alternateBounds" />
          </mxGeometry>
        </mxCell>
        <mxCell id="ih_uVpgDDXR5YDSlljtD-152" value="&lt;span style=&quot;font-size: 26px;&quot;&gt;Unit&lt;/span&gt;" style="shape=partialRectangle;html=1;whiteSpace=wrap;connectable=0;strokeColor=inherit;overflow=hidden;fillColor=none;top=0;left=0;bottom=0;right=0;pointerEvents=1;fontSize=16;" vertex="1" parent="ih_uVpgDDXR5YDSlljtD-147">
          <mxGeometry x="1233" width="309" height="99" as="geometry">
            <mxRectangle width="309" height="99" as="alternateBounds" />
          </mxGeometry>
        </mxCell>
        <mxCell id="ih_uVpgDDXR5YDSlljtD-153" style="shape=partialRectangle;html=1;whiteSpace=wrap;connectable=0;strokeColor=inherit;overflow=hidden;fillColor=none;top=0;left=0;bottom=0;right=0;pointerEvents=1;fontSize=16;" vertex="1" parent="ih_uVpgDDXR5YDSlljtD-147">
          <mxGeometry x="1542" width="308" height="99" as="geometry">
            <mxRectangle width="308" height="99" as="alternateBounds" />
          </mxGeometry>
        </mxCell>
        <mxCell id="ih_uVpgDDXR5YDSlljtD-154" value="" style="shape=tableRow;horizontal=0;startSize=0;swimlaneHead=0;swimlaneBody=0;strokeColor=inherit;top=0;left=0;bottom=0;right=0;collapsible=0;dropTarget=0;fillColor=none;points=[[0,0.5],[1,0.5]];portConstraint=eastwest;fontSize=16;" vertex="1" parent="ih_uVpgDDXR5YDSlljtD-146">
          <mxGeometry y="99" width="1850" height="99" as="geometry" />
        </mxCell>
        <mxCell id="ih_uVpgDDXR5YDSlljtD-155" value="&lt;font style=&quot;font-size: 26px;&quot;&gt;3334XXXXXX&lt;/font&gt;" style="shape=partialRectangle;html=1;whiteSpace=wrap;connectable=0;strokeColor=inherit;overflow=hidden;fillColor=none;top=0;left=0;bottom=0;right=0;pointerEvents=1;fontSize=16;" vertex="1" parent="ih_uVpgDDXR5YDSlljtD-154">
          <mxGeometry width="308" height="99" as="geometry">
            <mxRectangle width="308" height="99" as="alternateBounds" />
          </mxGeometry>
        </mxCell>
        <mxCell id="ih_uVpgDDXR5YDSlljtD-156" value="&lt;span style=&quot;font-size: 26px;&quot;&gt;Case Top&lt;/span&gt;" style="shape=partialRectangle;html=1;whiteSpace=wrap;connectable=0;strokeColor=inherit;overflow=hidden;fillColor=none;top=0;left=0;bottom=0;right=0;pointerEvents=1;fontSize=16;" vertex="1" parent="ih_uVpgDDXR5YDSlljtD-154">
          <mxGeometry x="308" width="309" height="99" as="geometry">
            <mxRectangle width="309" height="99" as="alternateBounds" />
          </mxGeometry>
        </mxCell>
        <mxCell id="ih_uVpgDDXR5YDSlljtD-157" value="" style="shape=partialRectangle;html=1;whiteSpace=wrap;connectable=0;strokeColor=inherit;overflow=hidden;fillColor=none;top=0;left=0;bottom=0;right=0;pointerEvents=1;fontSize=16;" vertex="1" parent="ih_uVpgDDXR5YDSlljtD-154">
          <mxGeometry x="617" width="308" height="99" as="geometry">
            <mxRectangle width="308" height="99" as="alternateBounds" />
          </mxGeometry>
        </mxCell>
        <mxCell id="ih_uVpgDDXR5YDSlljtD-158" style="shape=partialRectangle;html=1;whiteSpace=wrap;connectable=0;strokeColor=inherit;overflow=hidden;fillColor=none;top=0;left=0;bottom=0;right=0;pointerEvents=1;fontSize=16;" vertex="1" parent="ih_uVpgDDXR5YDSlljtD-154">
          <mxGeometry x="925" width="308" height="99" as="geometry">
            <mxRectangle width="308" height="99" as="alternateBounds" />
          </mxGeometry>
        </mxCell>
        <mxCell id="ih_uVpgDDXR5YDSlljtD-159" style="shape=partialRectangle;html=1;whiteSpace=wrap;connectable=0;strokeColor=inherit;overflow=hidden;fillColor=none;top=0;left=0;bottom=0;right=0;pointerEvents=1;fontSize=16;" vertex="1" parent="ih_uVpgDDXR5YDSlljtD-154">
          <mxGeometry x="1233" width="309" height="99" as="geometry">
            <mxRectangle width="309" height="99" as="alternateBounds" />
          </mxGeometry>
        </mxCell>
        <mxCell id="ih_uVpgDDXR5YDSlljtD-160" style="shape=partialRectangle;html=1;whiteSpace=wrap;connectable=0;strokeColor=inherit;overflow=hidden;fillColor=none;top=0;left=0;bottom=0;right=0;pointerEvents=1;fontSize=16;" vertex="1" parent="ih_uVpgDDXR5YDSlljtD-154">
          <mxGeometry x="1542" width="308" height="99" as="geometry">
            <mxRectangle width="308" height="99" as="alternateBounds" />
          </mxGeometry>
        </mxCell>
        <mxCell id="ih_uVpgDDXR5YDSlljtD-161" value="" style="shape=tableRow;horizontal=0;startSize=0;swimlaneHead=0;swimlaneBody=0;strokeColor=inherit;top=0;left=0;bottom=0;right=0;collapsible=0;dropTarget=0;fillColor=none;points=[[0,0.5],[1,0.5]];portConstraint=eastwest;fontSize=16;" vertex="1" parent="ih_uVpgDDXR5YDSlljtD-146">
          <mxGeometry y="198" width="1850" height="100" as="geometry" />
        </mxCell>
        <mxCell id="ih_uVpgDDXR5YDSlljtD-162" value="&lt;span style=&quot;font-size: 26px;&quot;&gt;3334XXXXXX&lt;/span&gt;" style="shape=partialRectangle;html=1;whiteSpace=wrap;connectable=0;strokeColor=inherit;overflow=hidden;fillColor=none;top=0;left=0;bottom=0;right=0;pointerEvents=1;fontSize=16;" vertex="1" parent="ih_uVpgDDXR5YDSlljtD-161">
          <mxGeometry width="308" height="100" as="geometry">
            <mxRectangle width="308" height="100" as="alternateBounds" />
          </mxGeometry>
        </mxCell>
        <mxCell id="ih_uVpgDDXR5YDSlljtD-163" value="&lt;span style=&quot;font-size: 26px;&quot;&gt;Case Bottom&lt;/span&gt;" style="shape=partialRectangle;html=1;whiteSpace=wrap;connectable=0;strokeColor=inherit;overflow=hidden;fillColor=none;top=0;left=0;bottom=0;right=0;pointerEvents=1;fontSize=16;" vertex="1" parent="ih_uVpgDDXR5YDSlljtD-161">
          <mxGeometry x="308" width="309" height="100" as="geometry">
            <mxRectangle width="309" height="100" as="alternateBounds" />
          </mxGeometry>
        </mxCell>
        <mxCell id="ih_uVpgDDXR5YDSlljtD-164" value="" style="shape=partialRectangle;html=1;whiteSpace=wrap;connectable=0;strokeColor=inherit;overflow=hidden;fillColor=none;top=0;left=0;bottom=0;right=0;pointerEvents=1;fontSize=16;" vertex="1" parent="ih_uVpgDDXR5YDSlljtD-161">
          <mxGeometry x="617" width="308" height="100" as="geometry">
            <mxRectangle width="308" height="100" as="alternateBounds" />
          </mxGeometry>
        </mxCell>
        <mxCell id="ih_uVpgDDXR5YDSlljtD-165" style="shape=partialRectangle;html=1;whiteSpace=wrap;connectable=0;strokeColor=inherit;overflow=hidden;fillColor=none;top=0;left=0;bottom=0;right=0;pointerEvents=1;fontSize=16;" vertex="1" parent="ih_uVpgDDXR5YDSlljtD-161">
          <mxGeometry x="925" width="308" height="100" as="geometry">
            <mxRectangle width="308" height="100" as="alternateBounds" />
          </mxGeometry>
        </mxCell>
        <mxCell id="ih_uVpgDDXR5YDSlljtD-166" style="shape=partialRectangle;html=1;whiteSpace=wrap;connectable=0;strokeColor=inherit;overflow=hidden;fillColor=none;top=0;left=0;bottom=0;right=0;pointerEvents=1;fontSize=16;" vertex="1" parent="ih_uVpgDDXR5YDSlljtD-161">
          <mxGeometry x="1233" width="309" height="100" as="geometry">
            <mxRectangle width="309" height="100" as="alternateBounds" />
          </mxGeometry>
        </mxCell>
        <mxCell id="ih_uVpgDDXR5YDSlljtD-167" style="shape=partialRectangle;html=1;whiteSpace=wrap;connectable=0;strokeColor=inherit;overflow=hidden;fillColor=none;top=0;left=0;bottom=0;right=0;pointerEvents=1;fontSize=16;" vertex="1" parent="ih_uVpgDDXR5YDSlljtD-161">
          <mxGeometry x="1542" width="308" height="100" as="geometry">
            <mxRectangle width="308" height="100" as="alternateBounds" />
          </mxGeometry>
        </mxCell>
        <mxCell id="ih_uVpgDDXR5YDSlljtD-168" style="shape=tableRow;horizontal=0;startSize=0;swimlaneHead=0;swimlaneBody=0;strokeColor=inherit;top=0;left=0;bottom=0;right=0;collapsible=0;dropTarget=0;fillColor=none;points=[[0,0.5],[1,0.5]];portConstraint=eastwest;fontSize=16;" vertex="1" parent="ih_uVpgDDXR5YDSlljtD-146">
          <mxGeometry y="298" width="1850" height="101" as="geometry" />
        </mxCell>
        <mxCell id="ih_uVpgDDXR5YDSlljtD-169" value="&lt;span style=&quot;font-size: 26px;&quot;&gt;3334XXXXXX&lt;/span&gt;" style="shape=partialRectangle;html=1;whiteSpace=wrap;connectable=0;strokeColor=inherit;overflow=hidden;fillColor=none;top=0;left=0;bottom=0;right=0;pointerEvents=1;fontSize=16;" vertex="1" parent="ih_uVpgDDXR5YDSlljtD-168">
          <mxGeometry width="308" height="101" as="geometry">
            <mxRectangle width="308" height="101" as="alternateBounds" />
          </mxGeometry>
        </mxCell>
        <mxCell id="ih_uVpgDDXR5YDSlljtD-170" value="&lt;span style=&quot;font-size: 26px;&quot;&gt;Label&lt;/span&gt;" style="shape=partialRectangle;html=1;whiteSpace=wrap;connectable=0;strokeColor=inherit;overflow=hidden;fillColor=none;top=0;left=0;bottom=0;right=0;pointerEvents=1;fontSize=16;" vertex="1" parent="ih_uVpgDDXR5YDSlljtD-168">
          <mxGeometry x="308" width="309" height="101" as="geometry">
            <mxRectangle width="309" height="101" as="alternateBounds" />
          </mxGeometry>
        </mxCell>
        <mxCell id="ih_uVpgDDXR5YDSlljtD-171" style="shape=partialRectangle;html=1;whiteSpace=wrap;connectable=0;strokeColor=inherit;overflow=hidden;fillColor=none;top=0;left=0;bottom=0;right=0;pointerEvents=1;fontSize=16;" vertex="1" parent="ih_uVpgDDXR5YDSlljtD-168">
          <mxGeometry x="617" width="308" height="101" as="geometry">
            <mxRectangle width="308" height="101" as="alternateBounds" />
          </mxGeometry>
        </mxCell>
        <mxCell id="ih_uVpgDDXR5YDSlljtD-172" style="shape=partialRectangle;html=1;whiteSpace=wrap;connectable=0;strokeColor=inherit;overflow=hidden;fillColor=none;top=0;left=0;bottom=0;right=0;pointerEvents=1;fontSize=16;" vertex="1" parent="ih_uVpgDDXR5YDSlljtD-168">
          <mxGeometry x="925" width="308" height="101" as="geometry">
            <mxRectangle width="308" height="101" as="alternateBounds" />
          </mxGeometry>
        </mxCell>
        <mxCell id="ih_uVpgDDXR5YDSlljtD-173" style="shape=partialRectangle;html=1;whiteSpace=wrap;connectable=0;strokeColor=inherit;overflow=hidden;fillColor=none;top=0;left=0;bottom=0;right=0;pointerEvents=1;fontSize=16;" vertex="1" parent="ih_uVpgDDXR5YDSlljtD-168">
          <mxGeometry x="1233" width="309" height="101" as="geometry">
            <mxRectangle width="309" height="101" as="alternateBounds" />
          </mxGeometry>
        </mxCell>
        <mxCell id="ih_uVpgDDXR5YDSlljtD-174" style="shape=partialRectangle;html=1;whiteSpace=wrap;connectable=0;strokeColor=inherit;overflow=hidden;fillColor=none;top=0;left=0;bottom=0;right=0;pointerEvents=1;fontSize=16;" vertex="1" parent="ih_uVpgDDXR5YDSlljtD-168">
          <mxGeometry x="1542" width="308" height="101" as="geometry">
            <mxRectangle width="308" height="101" as="alternateBounds" />
          </mxGeometry>
        </mxCell>
        <mxCell id="ih_uVpgDDXR5YDSlljtD-178" value="" style="rounded=0;whiteSpace=wrap;html=1;align=left;" vertex="1" parent="ih_uVpgDDXR5YDSlljtD-130">
          <mxGeometry x="340" y="450" width="1630" height="60" as="geometry" />
        </mxCell>
        <mxCell id="ih_uVpgDDXR5YDSlljtD-179" value="&lt;font style=&quot;font-size: 26px;&quot;&gt;Scan consumable&lt;/font&gt;" style="text;html=1;align=right;verticalAlign=middle;whiteSpace=wrap;rounded=0;fontSize=20;" vertex="1" parent="ih_uVpgDDXR5YDSlljtD-130">
          <mxGeometry x="120" y="465" width="210" height="30" as="geometry" />
        </mxCell>
        <mxCell id="ih_uVpgDDXR5YDSlljtD-231" value="" style="shape=image;verticalLabelPosition=bottom;labelBackgroundColor=default;verticalAlign=top;aspect=fixed;imageAspect=0;image=data:image/webp,UklGRrABAABXRUJQVlA4TKQBAAAv/0FlEIDgto0kif//9mwNKjVBo7KXI6DW2hu2+pGoaLhZT5im6AaBDwqK1xsoe2QFs1A/7jG8gNA/AbCkmrNVCreaOLvUKLyvuS1s1vda+WCflltbEamw3QlBVJJ8QU1seEYQTQoAxItzh14CoOPkoQ4ONXuKCpw9FMb0Gfb02Wr6FE5f2+Gd7WmQXSuH57PtUywYayv+i//iv/gv/ksYmDyQ1HC55jVEHshqmNxYJORuUSQPZDVMFrNn4sIDaY2Ba6OG4oGuGoEbi/zjbrMID+Q1/rDY9ZuEvpPPFdc3+kGjE9J9/Bf/xX/xX/wX/8V/8V/8F//Ff/Ff/Bf/xX/xX/wX/8V/8V/8F//Ff/Ff/Bf/xX/xX/wX/8V/8d9vdfpOPldc3+iHO625svDQXxuYPJDUcLnmNUQeyGqY3Fgk5G5RJA9kNUwWs2cyofFf/Bf/xX/xX1Zgexpk18rh+Wz7lBZ9r5UPPuWkTk2fsqfPNqbPENMnHGr2FAV99nQA4p08LwEAas6dSeGVSDVzShJYam5r3iy3Bu9TzdkqvVbE2aVGYQk=;" vertex="1" parent="ih_uVpgDDXR5YDSlljtD-130">
          <mxGeometry x="360" y="422" width="146.29" height="116" as="geometry" />
        </mxCell>
        <mxCell id="ih_uVpgDDXR5YDSlljtD-362" value="&lt;span style=&quot;font-size: 34px;&quot;&gt;Attach&lt;/span&gt;" style="rounded=1;whiteSpace=wrap;html=1;fillColor=#3b9edd;fontColor=#ffffff;strokeColor=#001DBC;" vertex="1" parent="ih_uVpgDDXR5YDSlljtD-130">
          <mxGeometry x="120" y="1450" width="1850" height="80" as="geometry" />
        </mxCell>
        <mxCell id="ih_uVpgDDXR5YDSlljtD-180" value="" style="group" vertex="1" connectable="0" parent="1">
          <mxGeometry x="4480" y="-1720" width="2080" height="1650" as="geometry" />
        </mxCell>
        <mxCell id="ih_uVpgDDXR5YDSlljtD-181" value="" style="rounded=0;whiteSpace=wrap;html=1;fillColor=default;" vertex="1" parent="ih_uVpgDDXR5YDSlljtD-180">
          <mxGeometry x="32" width="2048" height="1650" as="geometry" />
        </mxCell>
        <mxCell id="ih_uVpgDDXR5YDSlljtD-182" value="&lt;font style=&quot;font-size: 26px;&quot;&gt;&amp;nbsp;XXXXXX&lt;/font&gt;" style="rounded=0;whiteSpace=wrap;html=1;align=left;" vertex="1" parent="ih_uVpgDDXR5YDSlljtD-180">
          <mxGeometry x="347.33" y="120" width="1412.67" height="60" as="geometry" />
        </mxCell>
        <mxCell id="ih_uVpgDDXR5YDSlljtD-183" value="&lt;span style=&quot;font-size: 26px;&quot;&gt;&amp;nbsp;XXXXXX&lt;/span&gt;" style="rounded=0;whiteSpace=wrap;html=1;align=left;" vertex="1" parent="ih_uVpgDDXR5YDSlljtD-180">
          <mxGeometry x="347.33" y="200" width="1412.67" height="60" as="geometry" />
        </mxCell>
        <mxCell id="ih_uVpgDDXR5YDSlljtD-184" value="&lt;span style=&quot;font-size: 26px;&quot;&gt;&amp;nbsp;XXXXXX&lt;/span&gt;" style="rounded=0;whiteSpace=wrap;html=1;align=left;" vertex="1" parent="ih_uVpgDDXR5YDSlljtD-180">
          <mxGeometry x="347.33" y="280" width="1412.67" height="60" as="geometry" />
        </mxCell>
        <mxCell id="ih_uVpgDDXR5YDSlljtD-185" value="Production Order" style="text;html=1;align=right;verticalAlign=middle;whiteSpace=wrap;rounded=0;fontSize=26;" vertex="1" parent="ih_uVpgDDXR5YDSlljtD-180">
          <mxGeometry x="80.66666666666667" y="135" width="256" height="30" as="geometry" />
        </mxCell>
        <mxCell id="ih_uVpgDDXR5YDSlljtD-186" value="Resource" style="text;html=1;align=right;verticalAlign=middle;whiteSpace=wrap;rounded=0;fontSize=26;" vertex="1" parent="ih_uVpgDDXR5YDSlljtD-180">
          <mxGeometry x="80.66666666666667" y="295" width="256" height="30" as="geometry" />
        </mxCell>
        <mxCell id="ih_uVpgDDXR5YDSlljtD-187" value="Step" style="text;html=1;align=right;verticalAlign=middle;whiteSpace=wrap;rounded=0;fontSize=26;" vertex="1" parent="ih_uVpgDDXR5YDSlljtD-180">
          <mxGeometry x="70" y="215" width="266.6666666666667" height="30" as="geometry" />
        </mxCell>
        <mxCell id="ih_uVpgDDXR5YDSlljtD-188" value="" style="endArrow=none;html=1;rounded=0;entryX=1;entryY=0.25;entryDx=0;entryDy=0;" edge="1" parent="ih_uVpgDDXR5YDSlljtD-180">
          <mxGeometry width="50" height="50" relative="1" as="geometry">
            <mxPoint x="32" y="400" as="sourcePoint" />
            <mxPoint x="2080" y="400" as="targetPoint" />
          </mxGeometry>
        </mxCell>
        <mxCell id="ih_uVpgDDXR5YDSlljtD-189" value="" style="endArrow=none;html=1;rounded=0;exitX=0;exitY=0.25;exitDx=0;exitDy=0;" edge="1" parent="ih_uVpgDDXR5YDSlljtD-180">
          <mxGeometry width="50" height="50" relative="1" as="geometry">
            <mxPoint x="32" y="80" as="sourcePoint" />
            <mxPoint x="2080" y="80" as="targetPoint" />
          </mxGeometry>
        </mxCell>
        <mxCell id="ih_uVpgDDXR5YDSlljtD-190" value="&lt;font style=&quot;font-size: 32px;&quot;&gt;&lt;b&gt;Attach Consumables&lt;/b&gt;&lt;/font&gt;" style="text;html=1;align=center;verticalAlign=middle;whiteSpace=wrap;rounded=0;" vertex="1" parent="ih_uVpgDDXR5YDSlljtD-180">
          <mxGeometry x="119.99666666666667" y="30" width="362.6666666666667" height="30" as="geometry" />
        </mxCell>
        <mxCell id="ih_uVpgDDXR5YDSlljtD-191" value="" style="group" vertex="1" connectable="0" parent="ih_uVpgDDXR5YDSlljtD-180">
          <mxGeometry x="1800.0033333333333" y="120" width="170.66666666666666" height="273" as="geometry" />
        </mxCell>
        <mxCell id="ih_uVpgDDXR5YDSlljtD-192" value="&lt;font style=&quot;font-size: 19px;&quot;&gt;&amp;nbsp;&lt;/font&gt;&lt;div&gt;&lt;font style=&quot;font-size: 19px;&quot;&gt;&lt;br&gt;&lt;/font&gt;&lt;/div&gt;&lt;div&gt;&lt;font style=&quot;font-size: 19px;&quot;&gt;Search&lt;/font&gt;&lt;/div&gt;" style="rounded=1;whiteSpace=wrap;html=1;" vertex="1" parent="ih_uVpgDDXR5YDSlljtD-191">
          <mxGeometry width="170.66666666666666" height="220" as="geometry" />
        </mxCell>
        <mxCell id="ih_uVpgDDXR5YDSlljtD-193" value="" style="sketch=0;pointerEvents=1;shadow=0;dashed=0;html=1;strokeColor=none;fillColor=#505050;labelPosition=center;verticalLabelPosition=bottom;verticalAlign=top;outlineConnect=0;align=center;shape=mxgraph.office.concepts.search;" vertex="1" parent="ih_uVpgDDXR5YDSlljtD-191">
          <mxGeometry x="64" y="70" width="42.666666666666664" height="39" as="geometry" />
        </mxCell>
        <mxCell id="ih_uVpgDDXR5YDSlljtD-194" value="" style="group" vertex="1" connectable="0" parent="ih_uVpgDDXR5YDSlljtD-180">
          <mxGeometry x="120" y="571.5" width="1860.67" height="548.5" as="geometry" />
        </mxCell>
        <mxCell id="ih_uVpgDDXR5YDSlljtD-195" value="" style="shape=table;startSize=0;container=1;collapsible=0;childLayout=tableLayout;fontSize=16;" vertex="1" parent="ih_uVpgDDXR5YDSlljtD-194">
          <mxGeometry width="1850" height="398.5" as="geometry" />
        </mxCell>
        <mxCell id="ih_uVpgDDXR5YDSlljtD-196" value="" style="shape=tableRow;horizontal=0;startSize=0;swimlaneHead=0;swimlaneBody=0;strokeColor=inherit;top=0;left=0;bottom=0;right=0;collapsible=0;dropTarget=0;fillColor=none;points=[[0,0.5],[1,0.5]];portConstraint=eastwest;fontSize=16;" vertex="1" parent="ih_uVpgDDXR5YDSlljtD-195">
          <mxGeometry width="1850" height="99" as="geometry" />
        </mxCell>
        <mxCell id="ih_uVpgDDXR5YDSlljtD-197" value="&lt;font style=&quot;font-size: 26px;&quot;&gt;Part Number&lt;/font&gt;" style="shape=partialRectangle;html=1;whiteSpace=wrap;connectable=0;strokeColor=inherit;overflow=hidden;fillColor=none;top=0;left=0;bottom=0;right=0;pointerEvents=1;fontSize=16;" vertex="1" parent="ih_uVpgDDXR5YDSlljtD-196">
          <mxGeometry width="308" height="99" as="geometry">
            <mxRectangle width="308" height="99" as="alternateBounds" />
          </mxGeometry>
        </mxCell>
        <mxCell id="ih_uVpgDDXR5YDSlljtD-198" value="&lt;span style=&quot;font-size: 26px;&quot;&gt;Part Number Description&lt;/span&gt;" style="shape=partialRectangle;html=1;whiteSpace=wrap;connectable=0;strokeColor=inherit;overflow=hidden;fillColor=none;top=0;left=0;bottom=0;right=0;pointerEvents=1;fontSize=16;" vertex="1" parent="ih_uVpgDDXR5YDSlljtD-196">
          <mxGeometry x="308" width="309" height="99" as="geometry">
            <mxRectangle width="309" height="99" as="alternateBounds" />
          </mxGeometry>
        </mxCell>
        <mxCell id="ih_uVpgDDXR5YDSlljtD-199" value="&lt;span style=&quot;font-size: 26px;&quot;&gt;Consumable&lt;/span&gt;" style="shape=partialRectangle;html=1;whiteSpace=wrap;connectable=0;strokeColor=inherit;overflow=hidden;fillColor=none;top=0;left=0;bottom=0;right=0;pointerEvents=1;fontSize=16;" vertex="1" parent="ih_uVpgDDXR5YDSlljtD-196">
          <mxGeometry x="617" width="308" height="99" as="geometry">
            <mxRectangle width="308" height="99" as="alternateBounds" />
          </mxGeometry>
        </mxCell>
        <mxCell id="ih_uVpgDDXR5YDSlljtD-200" value="&lt;span style=&quot;font-size: 26px;&quot;&gt;Qty&lt;/span&gt;" style="shape=partialRectangle;html=1;whiteSpace=wrap;connectable=0;strokeColor=inherit;overflow=hidden;fillColor=none;top=0;left=0;bottom=0;right=0;pointerEvents=1;fontSize=16;" vertex="1" parent="ih_uVpgDDXR5YDSlljtD-196">
          <mxGeometry x="925" width="308" height="99" as="geometry">
            <mxRectangle width="308" height="99" as="alternateBounds" />
          </mxGeometry>
        </mxCell>
        <mxCell id="ih_uVpgDDXR5YDSlljtD-201" value="&lt;span style=&quot;font-size: 26px;&quot;&gt;Unit&lt;/span&gt;" style="shape=partialRectangle;html=1;whiteSpace=wrap;connectable=0;strokeColor=inherit;overflow=hidden;fillColor=none;top=0;left=0;bottom=0;right=0;pointerEvents=1;fontSize=16;" vertex="1" parent="ih_uVpgDDXR5YDSlljtD-196">
          <mxGeometry x="1233" width="309" height="99" as="geometry">
            <mxRectangle width="309" height="99" as="alternateBounds" />
          </mxGeometry>
        </mxCell>
        <mxCell id="ih_uVpgDDXR5YDSlljtD-202" style="shape=partialRectangle;html=1;whiteSpace=wrap;connectable=0;strokeColor=inherit;overflow=hidden;fillColor=none;top=0;left=0;bottom=0;right=0;pointerEvents=1;fontSize=16;" vertex="1" parent="ih_uVpgDDXR5YDSlljtD-196">
          <mxGeometry x="1542" width="308" height="99" as="geometry">
            <mxRectangle width="308" height="99" as="alternateBounds" />
          </mxGeometry>
        </mxCell>
        <mxCell id="ih_uVpgDDXR5YDSlljtD-203" value="" style="shape=tableRow;horizontal=0;startSize=0;swimlaneHead=0;swimlaneBody=0;strokeColor=inherit;top=0;left=0;bottom=0;right=0;collapsible=0;dropTarget=0;fillColor=none;points=[[0,0.5],[1,0.5]];portConstraint=eastwest;fontSize=16;" vertex="1" parent="ih_uVpgDDXR5YDSlljtD-195">
          <mxGeometry y="99" width="1850" height="99" as="geometry" />
        </mxCell>
        <mxCell id="ih_uVpgDDXR5YDSlljtD-204" value="&lt;font style=&quot;font-size: 26px;&quot;&gt;3334XXXXXX&lt;/font&gt;" style="shape=partialRectangle;html=1;whiteSpace=wrap;connectable=0;strokeColor=inherit;overflow=hidden;fillColor=none;top=0;left=0;bottom=0;right=0;pointerEvents=1;fontSize=16;" vertex="1" parent="ih_uVpgDDXR5YDSlljtD-203">
          <mxGeometry width="308" height="99" as="geometry">
            <mxRectangle width="308" height="99" as="alternateBounds" />
          </mxGeometry>
        </mxCell>
        <mxCell id="ih_uVpgDDXR5YDSlljtD-205" value="&lt;span style=&quot;font-size: 26px;&quot;&gt;Case Top&lt;/span&gt;" style="shape=partialRectangle;html=1;whiteSpace=wrap;connectable=0;strokeColor=inherit;overflow=hidden;fillColor=none;top=0;left=0;bottom=0;right=0;pointerEvents=1;fontSize=16;" vertex="1" parent="ih_uVpgDDXR5YDSlljtD-203">
          <mxGeometry x="308" width="309" height="99" as="geometry">
            <mxRectangle width="309" height="99" as="alternateBounds" />
          </mxGeometry>
        </mxCell>
        <mxCell id="ih_uVpgDDXR5YDSlljtD-206" value="" style="shape=partialRectangle;html=1;whiteSpace=wrap;connectable=0;strokeColor=inherit;overflow=hidden;fillColor=none;top=0;left=0;bottom=0;right=0;pointerEvents=1;fontSize=16;" vertex="1" parent="ih_uVpgDDXR5YDSlljtD-203">
          <mxGeometry x="617" width="308" height="99" as="geometry">
            <mxRectangle width="308" height="99" as="alternateBounds" />
          </mxGeometry>
        </mxCell>
        <mxCell id="ih_uVpgDDXR5YDSlljtD-207" style="shape=partialRectangle;html=1;whiteSpace=wrap;connectable=0;strokeColor=inherit;overflow=hidden;fillColor=none;top=0;left=0;bottom=0;right=0;pointerEvents=1;fontSize=16;" vertex="1" parent="ih_uVpgDDXR5YDSlljtD-203">
          <mxGeometry x="925" width="308" height="99" as="geometry">
            <mxRectangle width="308" height="99" as="alternateBounds" />
          </mxGeometry>
        </mxCell>
        <mxCell id="ih_uVpgDDXR5YDSlljtD-208" style="shape=partialRectangle;html=1;whiteSpace=wrap;connectable=0;strokeColor=inherit;overflow=hidden;fillColor=none;top=0;left=0;bottom=0;right=0;pointerEvents=1;fontSize=16;" vertex="1" parent="ih_uVpgDDXR5YDSlljtD-203">
          <mxGeometry x="1233" width="309" height="99" as="geometry">
            <mxRectangle width="309" height="99" as="alternateBounds" />
          </mxGeometry>
        </mxCell>
        <mxCell id="ih_uVpgDDXR5YDSlljtD-209" style="shape=partialRectangle;html=1;whiteSpace=wrap;connectable=0;strokeColor=inherit;overflow=hidden;fillColor=none;top=0;left=0;bottom=0;right=0;pointerEvents=1;fontSize=16;" vertex="1" parent="ih_uVpgDDXR5YDSlljtD-203">
          <mxGeometry x="1542" width="308" height="99" as="geometry">
            <mxRectangle width="308" height="99" as="alternateBounds" />
          </mxGeometry>
        </mxCell>
        <mxCell id="ih_uVpgDDXR5YDSlljtD-210" value="" style="shape=tableRow;horizontal=0;startSize=0;swimlaneHead=0;swimlaneBody=0;strokeColor=inherit;top=0;left=0;bottom=0;right=0;collapsible=0;dropTarget=0;fillColor=none;points=[[0,0.5],[1,0.5]];portConstraint=eastwest;fontSize=16;" vertex="1" parent="ih_uVpgDDXR5YDSlljtD-195">
          <mxGeometry y="198" width="1850" height="100" as="geometry" />
        </mxCell>
        <mxCell id="ih_uVpgDDXR5YDSlljtD-211" value="&lt;span style=&quot;font-size: 26px;&quot;&gt;3334XXXXXX&lt;/span&gt;" style="shape=partialRectangle;html=1;whiteSpace=wrap;connectable=0;strokeColor=inherit;overflow=hidden;fillColor=none;top=0;left=0;bottom=0;right=0;pointerEvents=1;fontSize=16;" vertex="1" parent="ih_uVpgDDXR5YDSlljtD-210">
          <mxGeometry width="308" height="100" as="geometry">
            <mxRectangle width="308" height="100" as="alternateBounds" />
          </mxGeometry>
        </mxCell>
        <mxCell id="ih_uVpgDDXR5YDSlljtD-212" value="&lt;span style=&quot;font-size: 26px;&quot;&gt;Case Bottom&lt;/span&gt;" style="shape=partialRectangle;html=1;whiteSpace=wrap;connectable=0;strokeColor=inherit;overflow=hidden;fillColor=none;top=0;left=0;bottom=0;right=0;pointerEvents=1;fontSize=16;" vertex="1" parent="ih_uVpgDDXR5YDSlljtD-210">
          <mxGeometry x="308" width="309" height="100" as="geometry">
            <mxRectangle width="309" height="100" as="alternateBounds" />
          </mxGeometry>
        </mxCell>
        <mxCell id="ih_uVpgDDXR5YDSlljtD-213" value="" style="shape=partialRectangle;html=1;whiteSpace=wrap;connectable=0;strokeColor=inherit;overflow=hidden;fillColor=none;top=0;left=0;bottom=0;right=0;pointerEvents=1;fontSize=16;" vertex="1" parent="ih_uVpgDDXR5YDSlljtD-210">
          <mxGeometry x="617" width="308" height="100" as="geometry">
            <mxRectangle width="308" height="100" as="alternateBounds" />
          </mxGeometry>
        </mxCell>
        <mxCell id="ih_uVpgDDXR5YDSlljtD-214" style="shape=partialRectangle;html=1;whiteSpace=wrap;connectable=0;strokeColor=inherit;overflow=hidden;fillColor=none;top=0;left=0;bottom=0;right=0;pointerEvents=1;fontSize=16;" vertex="1" parent="ih_uVpgDDXR5YDSlljtD-210">
          <mxGeometry x="925" width="308" height="100" as="geometry">
            <mxRectangle width="308" height="100" as="alternateBounds" />
          </mxGeometry>
        </mxCell>
        <mxCell id="ih_uVpgDDXR5YDSlljtD-215" style="shape=partialRectangle;html=1;whiteSpace=wrap;connectable=0;strokeColor=inherit;overflow=hidden;fillColor=none;top=0;left=0;bottom=0;right=0;pointerEvents=1;fontSize=16;" vertex="1" parent="ih_uVpgDDXR5YDSlljtD-210">
          <mxGeometry x="1233" width="309" height="100" as="geometry">
            <mxRectangle width="309" height="100" as="alternateBounds" />
          </mxGeometry>
        </mxCell>
        <mxCell id="ih_uVpgDDXR5YDSlljtD-216" style="shape=partialRectangle;html=1;whiteSpace=wrap;connectable=0;strokeColor=inherit;overflow=hidden;fillColor=none;top=0;left=0;bottom=0;right=0;pointerEvents=1;fontSize=16;" vertex="1" parent="ih_uVpgDDXR5YDSlljtD-210">
          <mxGeometry x="1542" width="308" height="100" as="geometry">
            <mxRectangle width="308" height="100" as="alternateBounds" />
          </mxGeometry>
        </mxCell>
        <mxCell id="ih_uVpgDDXR5YDSlljtD-217" style="shape=tableRow;horizontal=0;startSize=0;swimlaneHead=0;swimlaneBody=0;strokeColor=inherit;top=0;left=0;bottom=0;right=0;collapsible=0;dropTarget=0;fillColor=none;points=[[0,0.5],[1,0.5]];portConstraint=eastwest;fontSize=16;" vertex="1" parent="ih_uVpgDDXR5YDSlljtD-195">
          <mxGeometry y="298" width="1850" height="101" as="geometry" />
        </mxCell>
        <mxCell id="ih_uVpgDDXR5YDSlljtD-218" value="&lt;span style=&quot;font-size: 26px;&quot;&gt;3334XXXXXX&lt;/span&gt;" style="shape=partialRectangle;html=1;whiteSpace=wrap;connectable=0;strokeColor=inherit;overflow=hidden;fillColor=none;top=0;left=0;bottom=0;right=0;pointerEvents=1;fontSize=16;" vertex="1" parent="ih_uVpgDDXR5YDSlljtD-217">
          <mxGeometry width="308" height="101" as="geometry">
            <mxRectangle width="308" height="101" as="alternateBounds" />
          </mxGeometry>
        </mxCell>
        <mxCell id="ih_uVpgDDXR5YDSlljtD-219" value="&lt;span style=&quot;font-size: 26px;&quot;&gt;Label&lt;/span&gt;" style="shape=partialRectangle;html=1;whiteSpace=wrap;connectable=0;strokeColor=inherit;overflow=hidden;fillColor=none;top=0;left=0;bottom=0;right=0;pointerEvents=1;fontSize=16;" vertex="1" parent="ih_uVpgDDXR5YDSlljtD-217">
          <mxGeometry x="308" width="309" height="101" as="geometry">
            <mxRectangle width="309" height="101" as="alternateBounds" />
          </mxGeometry>
        </mxCell>
        <mxCell id="ih_uVpgDDXR5YDSlljtD-220" style="shape=partialRectangle;html=1;whiteSpace=wrap;connectable=0;strokeColor=inherit;overflow=hidden;fillColor=none;top=0;left=0;bottom=0;right=0;pointerEvents=1;fontSize=16;" vertex="1" parent="ih_uVpgDDXR5YDSlljtD-217">
          <mxGeometry x="617" width="308" height="101" as="geometry">
            <mxRectangle width="308" height="101" as="alternateBounds" />
          </mxGeometry>
        </mxCell>
        <mxCell id="ih_uVpgDDXR5YDSlljtD-221" style="shape=partialRectangle;html=1;whiteSpace=wrap;connectable=0;strokeColor=inherit;overflow=hidden;fillColor=none;top=0;left=0;bottom=0;right=0;pointerEvents=1;fontSize=16;" vertex="1" parent="ih_uVpgDDXR5YDSlljtD-217">
          <mxGeometry x="925" width="308" height="101" as="geometry">
            <mxRectangle width="308" height="101" as="alternateBounds" />
          </mxGeometry>
        </mxCell>
        <mxCell id="ih_uVpgDDXR5YDSlljtD-222" style="shape=partialRectangle;html=1;whiteSpace=wrap;connectable=0;strokeColor=inherit;overflow=hidden;fillColor=none;top=0;left=0;bottom=0;right=0;pointerEvents=1;fontSize=16;" vertex="1" parent="ih_uVpgDDXR5YDSlljtD-217">
          <mxGeometry x="1233" width="309" height="101" as="geometry">
            <mxRectangle width="309" height="101" as="alternateBounds" />
          </mxGeometry>
        </mxCell>
        <mxCell id="ih_uVpgDDXR5YDSlljtD-223" style="shape=partialRectangle;html=1;whiteSpace=wrap;connectable=0;strokeColor=inherit;overflow=hidden;fillColor=none;top=0;left=0;bottom=0;right=0;pointerEvents=1;fontSize=16;" vertex="1" parent="ih_uVpgDDXR5YDSlljtD-217">
          <mxGeometry x="1542" width="308" height="101" as="geometry">
            <mxRectangle width="308" height="101" as="alternateBounds" />
          </mxGeometry>
        </mxCell>
        <mxCell id="ih_uVpgDDXR5YDSlljtD-233" value="&lt;font style=&quot;font-size: 26px;&quot;&gt;334XXXXXXXXX&lt;/font&gt;" style="rounded=0;whiteSpace=wrap;html=1;align=left;" vertex="1" parent="ih_uVpgDDXR5YDSlljtD-180">
          <mxGeometry x="340" y="470" width="1630" height="60" as="geometry" />
        </mxCell>
        <mxCell id="ih_uVpgDDXR5YDSlljtD-234" value="&lt;font style=&quot;font-size: 26px;&quot;&gt;Scan consumable&lt;/font&gt;" style="text;html=1;align=right;verticalAlign=middle;whiteSpace=wrap;rounded=0;fontSize=20;" vertex="1" parent="ih_uVpgDDXR5YDSlljtD-180">
          <mxGeometry x="120" y="485" width="210" height="30" as="geometry" />
        </mxCell>
        <mxCell id="ih_uVpgDDXR5YDSlljtD-235" value="&lt;font style=&quot;font-size: 26px;&quot;&gt;334XXXXXXXXX_0001&lt;/font&gt;" style="rounded=0;whiteSpace=wrap;html=1;align=left;" vertex="1" parent="ih_uVpgDDXR5YDSlljtD-180">
          <mxGeometry x="340" y="530" width="1630" height="60" as="geometry" />
        </mxCell>
        <mxCell id="ih_uVpgDDXR5YDSlljtD-236" value="&lt;font style=&quot;font-size: 26px;&quot;&gt;334XXXXXXXXX_0002&lt;/font&gt;" style="rounded=0;whiteSpace=wrap;html=1;align=left;" vertex="1" parent="ih_uVpgDDXR5YDSlljtD-180">
          <mxGeometry x="340" y="590" width="1630" height="60" as="geometry" />
        </mxCell>
        <mxCell id="ih_uVpgDDXR5YDSlljtD-237" value="&lt;font style=&quot;font-size: 26px;&quot;&gt;334XXXXXXXXX_0003&lt;/font&gt;" style="rounded=0;whiteSpace=wrap;html=1;align=left;" vertex="1" parent="ih_uVpgDDXR5YDSlljtD-180">
          <mxGeometry x="340" y="650" width="1630" height="60" as="geometry" />
        </mxCell>
        <mxCell id="ih_uVpgDDXR5YDSlljtD-238" value="&lt;font style=&quot;font-size: 26px;&quot;&gt;334XXXXXXXXX_0004&lt;/font&gt;" style="rounded=0;whiteSpace=wrap;html=1;align=left;" vertex="1" parent="ih_uVpgDDXR5YDSlljtD-180">
          <mxGeometry x="340" y="710" width="1630" height="60" as="geometry" />
        </mxCell>
        <mxCell id="ih_uVpgDDXR5YDSlljtD-239" value="100 EA" style="text;html=1;align=center;verticalAlign=middle;whiteSpace=wrap;rounded=0;fontSize=26;" vertex="1" parent="ih_uVpgDDXR5YDSlljtD-180">
          <mxGeometry x="840" y="545" width="100" height="30" as="geometry" />
        </mxCell>
        <mxCell id="ih_uVpgDDXR5YDSlljtD-240" value="100 EA" style="text;html=1;align=center;verticalAlign=middle;whiteSpace=wrap;rounded=0;fontSize=26;" vertex="1" parent="ih_uVpgDDXR5YDSlljtD-180">
          <mxGeometry x="840" y="605" width="100" height="30" as="geometry" />
        </mxCell>
        <mxCell id="ih_uVpgDDXR5YDSlljtD-241" value="100 EA" style="text;html=1;align=center;verticalAlign=middle;whiteSpace=wrap;rounded=0;fontSize=26;" vertex="1" parent="ih_uVpgDDXR5YDSlljtD-180">
          <mxGeometry x="840" y="665" width="100" height="30" as="geometry" />
        </mxCell>
        <mxCell id="ih_uVpgDDXR5YDSlljtD-242" value="100 EA" style="text;html=1;align=center;verticalAlign=middle;whiteSpace=wrap;rounded=0;fontSize=26;" vertex="1" parent="ih_uVpgDDXR5YDSlljtD-180">
          <mxGeometry x="840" y="725" width="100" height="30" as="geometry" />
        </mxCell>
        <mxCell id="ih_uVpgDDXR5YDSlljtD-244" value="" style="endArrow=none;html=1;rounded=0;exitX=0;exitY=0.25;exitDx=0;exitDy=0;entryX=1;entryY=0.25;entryDx=0;entryDy=0;" edge="1" parent="ih_uVpgDDXR5YDSlljtD-180">
          <mxGeometry width="50" height="50" relative="1" as="geometry">
            <mxPoint x="50" y="410" as="sourcePoint" />
            <mxPoint x="1950" y="410" as="targetPoint" />
          </mxGeometry>
        </mxCell>
        <mxCell id="ih_uVpgDDXR5YDSlljtD-245" value="" style="shape=image;verticalLabelPosition=bottom;labelBackgroundColor=default;verticalAlign=top;aspect=fixed;imageAspect=0;image=data:image/svg+xml,PHN2ZyB4bWxucz0iaHR0cDovL3d3dy53My5vcmcvMjAwMC9zdmciIHZpZXdCb3g9IjAgMCAxMDIuNTMgMTIyLjg4IiBkYXRhLW5hbWU9IkxheWVyIDEiIGlkPSJMYXllcl8xIj48dGl0bGU+bW91c2UtY3Vyc29yPC90aXRsZT48cGF0aCBkPSJNNzYuNywxMjIuNDVhNC42Miw0LjYyLDAsMCwxLTMuMTEuMjgsNC4zNCw0LjM0LDAsMCwxLTIuNjYtMkw1OS43OCwxMDEuNTFsLTEwLjYxLDExLjlBMTMuMzcsMTMuMzcsMCwwLDEsNDQuNCwxMTdhNi4yNyw2LjI3LDAsMCwxLTMuNjMuNDIsNC44Miw0LjgyLDAsMCwxLTMuMTQtMi4yNiw4Ljc0LDguNzQsMCwwLDEtMS4xOC00bC01LjkxLTc3YTEuMDksMS4wOSwwLDAsMSwwLS4xOCwzLjIyLDMuMjIsMCwwLDEsMS4zLTIuNjUsMS44NSwxLjg1LDAsMCwxLC42My0uMzEsMy4wOSwzLjA5LDAsMCwxLDEuMzQtLjE1LDMuMzQsMy4zNCwwLDAsMSwxLjIzLjM5LDEuNzYsMS43NiwwLDAsMSwuMzcuMjNMOTksNzVhOC44Niw4Ljg2LDAsMCwxLDIuOTEsMyw0Ljc5LDQuNzksMCwwLDEsLjM4LDMuODUsNi4yOSw2LjI5LDAsMCwxLTIuMTgsMi45MywxMy4zNCwxMy4zNCwwLDAsMS01LjQ3LDIuMzVsLS4wNywwTDc5LDkwLjM4LDkwLjEsMTA5LjY2YTQuMzIsNC4zMiwwLDAsMSwuNDEsMy4yOSw0LjY2LDQuNjYsMCwwLDEtMS45NCwyLjY3bC0uMTMuMDctMTEuNSw2LjY0YS45LjksMCwwLDEtLjI0LjEyWm0tMi4wOC0zLjYyYS42Mi42MiwwLDAsMCwuMzMsMCwuMzQuMzQsMCwwLDEsLjEyLS4wNmwxMS4zNS02LjU1YS41OC41OCwwLDAsMCwuMi0uMzEuMzUuMzUsMCwwLDAsMC0uMjVsLTEzLTIyLjIyaDBhMi4wNSwyLjA1LDAsMCwxLS4yMi0uNkEyLDIsMCwwLDEsNzUsODYuNDZsMTguMjYtMy4yNGguMDdhOS40MSw5LjQxLDAsMCwwLDMuOC0xLjU4LDIuMzYsMi4zNiwwLDAsMCwuODMtMSwuOTEuOTEsMCwwLDAtLjExLS43Myw1LDUsMCwwLDAtMS42MS0xLjU4bC02MS00MS45Mkw0MSwxMTBhNC44Niw0Ljg2LDAsMCwwLC41NywyLjE5Ljg5Ljg5LDAsMCwwLC41Ny40NSwyLjIyLDIuMjIsMCwwLDAsMS4yOS0uMjEsOS4xNiw5LjE2LDAsMCwwLDMuMjYtMi41bDExLjM3LTEzLjdoMGEyLjE5LDIuMTksMCwwLDEsLjUtLjQxLDIsMiwwLDAsMSwyLjc1Ljc0bDEzLjA5LDIyLjE2YS4zNC4zNCwwLDAsMCwuMjEuMTJabS40NC0uMDZhMiwyLDAsMCwxLC44OC0uMjFsLS44OC4yMVpNMjkuNTIsMTUuMzdhMTQuMTEsMTQuMTEsMCwwLDEsMTAsNC4xNGMuMjcuMjcuNTIuNTQuNzYuODJsLS40MS0uMTNhMTUuMjMsMTUuMjMsMCwwLDAtMi4zNS0uNTRjLS4yNi0uMDUtLjUzLS4wOS0uNzktLjEyYTE2LjQxLDE2LjQxLDAsMCwwLTMuNjQsMGwtLjUxLjA3YTEwLjQyLDEwLjQyLDAsMCwwLTEwLjQxLDIuNTdoMGExMC4zMywxMC4zMywwLDAsMC0zLDcuMzQsMTAuNDMsMTAuNDMsMCwwLDEtLjE4LDMsMTYsMTYsMCwwLDAtLjI3LDIuNTYsMTIuMzEsMTIuMzEsMCwwLDAsMCwxLjkybC4xNCwxLjc4YTE0LjE2LDE0LjE2LDAsMCwxLC42Ny0xOS4yOWgwYTE0LjEsMTQuMSwwLDAsMSwxMC00LjE0Wk0yOS41MiwwQTI5LjUzLDI5LjUzLDAsMCwxLDU5LjA1LDI5LjUyYzAsMSwwLDEuOTItLjE0LDIuODZsLTQuMzQtM0EyNSwyNSwwLDEsMCwxOS45LDUyLjY2bC4zOCw0LjkxQTI5LjUzLDI5LjUzLDAsMCwxLDI5LjUyLDBaIi8+PC9zdmc+;" vertex="1" parent="ih_uVpgDDXR5YDSlljtD-180">
          <mxGeometry x="950.003333333334" y="590" width="103" height="123" as="geometry" />
        </mxCell>
        <mxCell id="ih_uVpgDDXR5YDSlljtD-367" value="&lt;span style=&quot;font-size: 34px;&quot;&gt;Attach&lt;/span&gt;" style="rounded=1;whiteSpace=wrap;html=1;fillColor=#3b9edd;fontColor=#ffffff;strokeColor=#001DBC;" vertex="1" parent="ih_uVpgDDXR5YDSlljtD-180">
          <mxGeometry x="120" y="1440" width="1850" height="80" as="geometry" />
        </mxCell>
        <mxCell id="ih_uVpgDDXR5YDSlljtD-246" value="" style="group" vertex="1" connectable="0" parent="1">
          <mxGeometry x="6800" y="-1720" width="2270" height="1650" as="geometry" />
        </mxCell>
        <mxCell id="ih_uVpgDDXR5YDSlljtD-247" value="" style="rounded=0;whiteSpace=wrap;html=1;fillColor=default;" vertex="1" parent="ih_uVpgDDXR5YDSlljtD-246">
          <mxGeometry x="32" width="2048" height="1650" as="geometry" />
        </mxCell>
        <mxCell id="ih_uVpgDDXR5YDSlljtD-248" value="&lt;font style=&quot;font-size: 26px;&quot;&gt;&amp;nbsp;XXXXXX&lt;/font&gt;" style="rounded=0;whiteSpace=wrap;html=1;align=left;" vertex="1" parent="ih_uVpgDDXR5YDSlljtD-246">
          <mxGeometry x="347.33" y="120" width="1412.67" height="60" as="geometry" />
        </mxCell>
        <mxCell id="ih_uVpgDDXR5YDSlljtD-249" value="&lt;span style=&quot;font-size: 26px;&quot;&gt;&amp;nbsp;XXXXXX&lt;/span&gt;" style="rounded=0;whiteSpace=wrap;html=1;align=left;" vertex="1" parent="ih_uVpgDDXR5YDSlljtD-246">
          <mxGeometry x="347.33" y="200" width="1412.67" height="60" as="geometry" />
        </mxCell>
        <mxCell id="ih_uVpgDDXR5YDSlljtD-250" value="&lt;span style=&quot;font-size: 26px;&quot;&gt;&amp;nbsp;XXXXXX&lt;/span&gt;" style="rounded=0;whiteSpace=wrap;html=1;align=left;" vertex="1" parent="ih_uVpgDDXR5YDSlljtD-246">
          <mxGeometry x="347.33" y="280" width="1412.67" height="60" as="geometry" />
        </mxCell>
        <mxCell id="ih_uVpgDDXR5YDSlljtD-251" value="Production Order" style="text;html=1;align=right;verticalAlign=middle;whiteSpace=wrap;rounded=0;fontSize=26;" vertex="1" parent="ih_uVpgDDXR5YDSlljtD-246">
          <mxGeometry x="80.66666666666667" y="135" width="256" height="30" as="geometry" />
        </mxCell>
        <mxCell id="ih_uVpgDDXR5YDSlljtD-252" value="Resource" style="text;html=1;align=right;verticalAlign=middle;whiteSpace=wrap;rounded=0;fontSize=26;" vertex="1" parent="ih_uVpgDDXR5YDSlljtD-246">
          <mxGeometry x="80.66666666666667" y="295" width="256" height="30" as="geometry" />
        </mxCell>
        <mxCell id="ih_uVpgDDXR5YDSlljtD-253" value="Step" style="text;html=1;align=right;verticalAlign=middle;whiteSpace=wrap;rounded=0;fontSize=26;" vertex="1" parent="ih_uVpgDDXR5YDSlljtD-246">
          <mxGeometry x="70" y="215" width="266.6666666666667" height="30" as="geometry" />
        </mxCell>
        <mxCell id="ih_uVpgDDXR5YDSlljtD-254" value="" style="endArrow=none;html=1;rounded=0;entryX=1;entryY=0.25;entryDx=0;entryDy=0;" edge="1" parent="ih_uVpgDDXR5YDSlljtD-246">
          <mxGeometry width="50" height="50" relative="1" as="geometry">
            <mxPoint x="32" y="400" as="sourcePoint" />
            <mxPoint x="2080" y="400" as="targetPoint" />
          </mxGeometry>
        </mxCell>
        <mxCell id="ih_uVpgDDXR5YDSlljtD-255" value="" style="endArrow=none;html=1;rounded=0;exitX=0;exitY=0.25;exitDx=0;exitDy=0;" edge="1" parent="ih_uVpgDDXR5YDSlljtD-246">
          <mxGeometry width="50" height="50" relative="1" as="geometry">
            <mxPoint x="32" y="80" as="sourcePoint" />
            <mxPoint x="2080" y="80" as="targetPoint" />
          </mxGeometry>
        </mxCell>
        <mxCell id="ih_uVpgDDXR5YDSlljtD-256" value="&lt;font style=&quot;font-size: 32px;&quot;&gt;&lt;b&gt;Attach Consumables&lt;/b&gt;&lt;/font&gt;" style="text;html=1;align=center;verticalAlign=middle;whiteSpace=wrap;rounded=0;" vertex="1" parent="ih_uVpgDDXR5YDSlljtD-246">
          <mxGeometry x="119.99666666666667" y="30" width="362.6666666666667" height="30" as="geometry" />
        </mxCell>
        <mxCell id="ih_uVpgDDXR5YDSlljtD-257" value="" style="group" vertex="1" connectable="0" parent="ih_uVpgDDXR5YDSlljtD-246">
          <mxGeometry x="1800.0033333333333" y="120" width="170.66666666666666" height="273" as="geometry" />
        </mxCell>
        <mxCell id="ih_uVpgDDXR5YDSlljtD-258" value="&lt;font style=&quot;font-size: 19px;&quot;&gt;&amp;nbsp;&lt;/font&gt;&lt;div&gt;&lt;font style=&quot;font-size: 19px;&quot;&gt;&lt;br&gt;&lt;/font&gt;&lt;/div&gt;&lt;div&gt;&lt;font style=&quot;font-size: 19px;&quot;&gt;Search&lt;/font&gt;&lt;/div&gt;" style="rounded=1;whiteSpace=wrap;html=1;" vertex="1" parent="ih_uVpgDDXR5YDSlljtD-257">
          <mxGeometry width="170.66666666666666" height="220" as="geometry" />
        </mxCell>
        <mxCell id="ih_uVpgDDXR5YDSlljtD-259" value="" style="sketch=0;pointerEvents=1;shadow=0;dashed=0;html=1;strokeColor=none;fillColor=#505050;labelPosition=center;verticalLabelPosition=bottom;verticalAlign=top;outlineConnect=0;align=center;shape=mxgraph.office.concepts.search;" vertex="1" parent="ih_uVpgDDXR5YDSlljtD-257">
          <mxGeometry x="64" y="70" width="42.666666666666664" height="39" as="geometry" />
        </mxCell>
        <mxCell id="ih_uVpgDDXR5YDSlljtD-260" value="" style="group" vertex="1" connectable="0" parent="ih_uVpgDDXR5YDSlljtD-246">
          <mxGeometry x="120" y="571.5" width="1850" height="538.5" as="geometry" />
        </mxCell>
        <mxCell id="ih_uVpgDDXR5YDSlljtD-261" value="" style="shape=table;startSize=0;container=1;collapsible=0;childLayout=tableLayout;fontSize=16;" vertex="1" parent="ih_uVpgDDXR5YDSlljtD-260">
          <mxGeometry width="1850" height="398.5" as="geometry" />
        </mxCell>
        <mxCell id="ih_uVpgDDXR5YDSlljtD-262" value="" style="shape=tableRow;horizontal=0;startSize=0;swimlaneHead=0;swimlaneBody=0;strokeColor=inherit;top=0;left=0;bottom=0;right=0;collapsible=0;dropTarget=0;fillColor=none;points=[[0,0.5],[1,0.5]];portConstraint=eastwest;fontSize=16;" vertex="1" parent="ih_uVpgDDXR5YDSlljtD-261">
          <mxGeometry width="1850" height="99" as="geometry" />
        </mxCell>
        <mxCell id="ih_uVpgDDXR5YDSlljtD-263" value="&lt;font style=&quot;font-size: 26px;&quot;&gt;Part Number&lt;/font&gt;" style="shape=partialRectangle;html=1;whiteSpace=wrap;connectable=0;strokeColor=inherit;overflow=hidden;fillColor=none;top=0;left=0;bottom=0;right=0;pointerEvents=1;fontSize=16;" vertex="1" parent="ih_uVpgDDXR5YDSlljtD-262">
          <mxGeometry width="308" height="99" as="geometry">
            <mxRectangle width="308" height="99" as="alternateBounds" />
          </mxGeometry>
        </mxCell>
        <mxCell id="ih_uVpgDDXR5YDSlljtD-264" value="&lt;span style=&quot;font-size: 26px;&quot;&gt;Part Number Description&lt;/span&gt;" style="shape=partialRectangle;html=1;whiteSpace=wrap;connectable=0;strokeColor=inherit;overflow=hidden;fillColor=none;top=0;left=0;bottom=0;right=0;pointerEvents=1;fontSize=16;" vertex="1" parent="ih_uVpgDDXR5YDSlljtD-262">
          <mxGeometry x="308" width="309" height="99" as="geometry">
            <mxRectangle width="309" height="99" as="alternateBounds" />
          </mxGeometry>
        </mxCell>
        <mxCell id="ih_uVpgDDXR5YDSlljtD-265" value="&lt;span style=&quot;font-size: 26px;&quot;&gt;Consumable&lt;/span&gt;" style="shape=partialRectangle;html=1;whiteSpace=wrap;connectable=0;strokeColor=inherit;overflow=hidden;fillColor=none;top=0;left=0;bottom=0;right=0;pointerEvents=1;fontSize=16;" vertex="1" parent="ih_uVpgDDXR5YDSlljtD-262">
          <mxGeometry x="617" width="308" height="99" as="geometry">
            <mxRectangle width="308" height="99" as="alternateBounds" />
          </mxGeometry>
        </mxCell>
        <mxCell id="ih_uVpgDDXR5YDSlljtD-266" value="&lt;span style=&quot;font-size: 26px;&quot;&gt;Qty&lt;/span&gt;" style="shape=partialRectangle;html=1;whiteSpace=wrap;connectable=0;strokeColor=inherit;overflow=hidden;fillColor=none;top=0;left=0;bottom=0;right=0;pointerEvents=1;fontSize=16;" vertex="1" parent="ih_uVpgDDXR5YDSlljtD-262">
          <mxGeometry x="925" width="308" height="99" as="geometry">
            <mxRectangle width="308" height="99" as="alternateBounds" />
          </mxGeometry>
        </mxCell>
        <mxCell id="ih_uVpgDDXR5YDSlljtD-267" value="&lt;span style=&quot;font-size: 26px;&quot;&gt;Unit&lt;/span&gt;" style="shape=partialRectangle;html=1;whiteSpace=wrap;connectable=0;strokeColor=inherit;overflow=hidden;fillColor=none;top=0;left=0;bottom=0;right=0;pointerEvents=1;fontSize=16;" vertex="1" parent="ih_uVpgDDXR5YDSlljtD-262">
          <mxGeometry x="1233" width="309" height="99" as="geometry">
            <mxRectangle width="309" height="99" as="alternateBounds" />
          </mxGeometry>
        </mxCell>
        <mxCell id="ih_uVpgDDXR5YDSlljtD-268" style="shape=partialRectangle;html=1;whiteSpace=wrap;connectable=0;strokeColor=inherit;overflow=hidden;fillColor=none;top=0;left=0;bottom=0;right=0;pointerEvents=1;fontSize=16;" vertex="1" parent="ih_uVpgDDXR5YDSlljtD-262">
          <mxGeometry x="1542" width="308" height="99" as="geometry">
            <mxRectangle width="308" height="99" as="alternateBounds" />
          </mxGeometry>
        </mxCell>
        <mxCell id="ih_uVpgDDXR5YDSlljtD-269" value="" style="shape=tableRow;horizontal=0;startSize=0;swimlaneHead=0;swimlaneBody=0;strokeColor=inherit;top=0;left=0;bottom=0;right=0;collapsible=0;dropTarget=0;fillColor=none;points=[[0,0.5],[1,0.5]];portConstraint=eastwest;fontSize=16;" vertex="1" parent="ih_uVpgDDXR5YDSlljtD-261">
          <mxGeometry y="99" width="1850" height="99" as="geometry" />
        </mxCell>
        <mxCell id="ih_uVpgDDXR5YDSlljtD-270" value="&lt;font style=&quot;font-size: 26px;&quot;&gt;3334XXXXXX&lt;/font&gt;" style="shape=partialRectangle;html=1;whiteSpace=wrap;connectable=0;strokeColor=inherit;overflow=hidden;fillColor=none;top=0;left=0;bottom=0;right=0;pointerEvents=1;fontSize=16;" vertex="1" parent="ih_uVpgDDXR5YDSlljtD-269">
          <mxGeometry width="308" height="99" as="geometry">
            <mxRectangle width="308" height="99" as="alternateBounds" />
          </mxGeometry>
        </mxCell>
        <mxCell id="ih_uVpgDDXR5YDSlljtD-271" value="&lt;span style=&quot;font-size: 26px;&quot;&gt;Case Top&lt;/span&gt;" style="shape=partialRectangle;html=1;whiteSpace=wrap;connectable=0;strokeColor=inherit;overflow=hidden;fillColor=none;top=0;left=0;bottom=0;right=0;pointerEvents=1;fontSize=16;" vertex="1" parent="ih_uVpgDDXR5YDSlljtD-269">
          <mxGeometry x="308" width="309" height="99" as="geometry">
            <mxRectangle width="309" height="99" as="alternateBounds" />
          </mxGeometry>
        </mxCell>
        <mxCell id="ih_uVpgDDXR5YDSlljtD-272" value="" style="shape=partialRectangle;html=1;whiteSpace=wrap;connectable=0;strokeColor=inherit;overflow=hidden;fillColor=none;top=0;left=0;bottom=0;right=0;pointerEvents=1;fontSize=16;" vertex="1" parent="ih_uVpgDDXR5YDSlljtD-269">
          <mxGeometry x="617" width="308" height="99" as="geometry">
            <mxRectangle width="308" height="99" as="alternateBounds" />
          </mxGeometry>
        </mxCell>
        <mxCell id="ih_uVpgDDXR5YDSlljtD-273" style="shape=partialRectangle;html=1;whiteSpace=wrap;connectable=0;strokeColor=inherit;overflow=hidden;fillColor=none;top=0;left=0;bottom=0;right=0;pointerEvents=1;fontSize=16;" vertex="1" parent="ih_uVpgDDXR5YDSlljtD-269">
          <mxGeometry x="925" width="308" height="99" as="geometry">
            <mxRectangle width="308" height="99" as="alternateBounds" />
          </mxGeometry>
        </mxCell>
        <mxCell id="ih_uVpgDDXR5YDSlljtD-274" style="shape=partialRectangle;html=1;whiteSpace=wrap;connectable=0;strokeColor=inherit;overflow=hidden;fillColor=none;top=0;left=0;bottom=0;right=0;pointerEvents=1;fontSize=16;" vertex="1" parent="ih_uVpgDDXR5YDSlljtD-269">
          <mxGeometry x="1233" width="309" height="99" as="geometry">
            <mxRectangle width="309" height="99" as="alternateBounds" />
          </mxGeometry>
        </mxCell>
        <mxCell id="ih_uVpgDDXR5YDSlljtD-275" style="shape=partialRectangle;html=1;whiteSpace=wrap;connectable=0;strokeColor=inherit;overflow=hidden;fillColor=none;top=0;left=0;bottom=0;right=0;pointerEvents=1;fontSize=16;" vertex="1" parent="ih_uVpgDDXR5YDSlljtD-269">
          <mxGeometry x="1542" width="308" height="99" as="geometry">
            <mxRectangle width="308" height="99" as="alternateBounds" />
          </mxGeometry>
        </mxCell>
        <mxCell id="ih_uVpgDDXR5YDSlljtD-276" value="" style="shape=tableRow;horizontal=0;startSize=0;swimlaneHead=0;swimlaneBody=0;strokeColor=inherit;top=0;left=0;bottom=0;right=0;collapsible=0;dropTarget=0;fillColor=none;points=[[0,0.5],[1,0.5]];portConstraint=eastwest;fontSize=16;" vertex="1" parent="ih_uVpgDDXR5YDSlljtD-261">
          <mxGeometry y="198" width="1850" height="100" as="geometry" />
        </mxCell>
        <mxCell id="ih_uVpgDDXR5YDSlljtD-277" value="&lt;span style=&quot;font-size: 26px;&quot;&gt;3334XXXXXX&lt;/span&gt;" style="shape=partialRectangle;html=1;whiteSpace=wrap;connectable=0;strokeColor=inherit;overflow=hidden;fillColor=none;top=0;left=0;bottom=0;right=0;pointerEvents=1;fontSize=16;" vertex="1" parent="ih_uVpgDDXR5YDSlljtD-276">
          <mxGeometry width="308" height="100" as="geometry">
            <mxRectangle width="308" height="100" as="alternateBounds" />
          </mxGeometry>
        </mxCell>
        <mxCell id="ih_uVpgDDXR5YDSlljtD-278" value="&lt;span style=&quot;font-size: 26px;&quot;&gt;Case Bottom&lt;/span&gt;" style="shape=partialRectangle;html=1;whiteSpace=wrap;connectable=0;strokeColor=inherit;overflow=hidden;fillColor=none;top=0;left=0;bottom=0;right=0;pointerEvents=1;fontSize=16;" vertex="1" parent="ih_uVpgDDXR5YDSlljtD-276">
          <mxGeometry x="308" width="309" height="100" as="geometry">
            <mxRectangle width="309" height="100" as="alternateBounds" />
          </mxGeometry>
        </mxCell>
        <mxCell id="ih_uVpgDDXR5YDSlljtD-279" value="&lt;span style=&quot;font-size: 26px; text-align: left;&quot;&gt;334XXXXXXXXX_0003&lt;/span&gt;" style="shape=partialRectangle;html=1;whiteSpace=wrap;connectable=0;strokeColor=inherit;overflow=hidden;fillColor=none;top=0;left=0;bottom=0;right=0;pointerEvents=1;fontSize=16;" vertex="1" parent="ih_uVpgDDXR5YDSlljtD-276">
          <mxGeometry x="617" width="308" height="100" as="geometry">
            <mxRectangle width="308" height="100" as="alternateBounds" />
          </mxGeometry>
        </mxCell>
        <mxCell id="ih_uVpgDDXR5YDSlljtD-280" value="&lt;span style=&quot;font-size: 26px; text-align: left;&quot;&gt;100&lt;/span&gt;" style="shape=partialRectangle;html=1;whiteSpace=wrap;connectable=0;strokeColor=inherit;overflow=hidden;fillColor=none;top=0;left=0;bottom=0;right=0;pointerEvents=1;fontSize=16;" vertex="1" parent="ih_uVpgDDXR5YDSlljtD-276">
          <mxGeometry x="925" width="308" height="100" as="geometry">
            <mxRectangle width="308" height="100" as="alternateBounds" />
          </mxGeometry>
        </mxCell>
        <mxCell id="ih_uVpgDDXR5YDSlljtD-281" value="&lt;span style=&quot;font-size: 26px; text-align: left;&quot;&gt;EA&lt;/span&gt;" style="shape=partialRectangle;html=1;whiteSpace=wrap;connectable=0;strokeColor=inherit;overflow=hidden;fillColor=none;top=0;left=0;bottom=0;right=0;pointerEvents=1;fontSize=16;" vertex="1" parent="ih_uVpgDDXR5YDSlljtD-276">
          <mxGeometry x="1233" width="309" height="100" as="geometry">
            <mxRectangle width="309" height="100" as="alternateBounds" />
          </mxGeometry>
        </mxCell>
        <mxCell id="ih_uVpgDDXR5YDSlljtD-282" style="shape=partialRectangle;html=1;whiteSpace=wrap;connectable=0;strokeColor=inherit;overflow=hidden;fillColor=none;top=0;left=0;bottom=0;right=0;pointerEvents=1;fontSize=16;" vertex="1" parent="ih_uVpgDDXR5YDSlljtD-276">
          <mxGeometry x="1542" width="308" height="100" as="geometry">
            <mxRectangle width="308" height="100" as="alternateBounds" />
          </mxGeometry>
        </mxCell>
        <mxCell id="ih_uVpgDDXR5YDSlljtD-283" style="shape=tableRow;horizontal=0;startSize=0;swimlaneHead=0;swimlaneBody=0;strokeColor=inherit;top=0;left=0;bottom=0;right=0;collapsible=0;dropTarget=0;fillColor=none;points=[[0,0.5],[1,0.5]];portConstraint=eastwest;fontSize=16;" vertex="1" parent="ih_uVpgDDXR5YDSlljtD-261">
          <mxGeometry y="298" width="1850" height="101" as="geometry" />
        </mxCell>
        <mxCell id="ih_uVpgDDXR5YDSlljtD-284" value="&lt;span style=&quot;font-size: 26px;&quot;&gt;3334XXXXXX&lt;/span&gt;" style="shape=partialRectangle;html=1;whiteSpace=wrap;connectable=0;strokeColor=inherit;overflow=hidden;fillColor=none;top=0;left=0;bottom=0;right=0;pointerEvents=1;fontSize=16;" vertex="1" parent="ih_uVpgDDXR5YDSlljtD-283">
          <mxGeometry width="308" height="101" as="geometry">
            <mxRectangle width="308" height="101" as="alternateBounds" />
          </mxGeometry>
        </mxCell>
        <mxCell id="ih_uVpgDDXR5YDSlljtD-285" value="&lt;span style=&quot;font-size: 26px;&quot;&gt;Label&lt;/span&gt;" style="shape=partialRectangle;html=1;whiteSpace=wrap;connectable=0;strokeColor=inherit;overflow=hidden;fillColor=none;top=0;left=0;bottom=0;right=0;pointerEvents=1;fontSize=16;" vertex="1" parent="ih_uVpgDDXR5YDSlljtD-283">
          <mxGeometry x="308" width="309" height="101" as="geometry">
            <mxRectangle width="309" height="101" as="alternateBounds" />
          </mxGeometry>
        </mxCell>
        <mxCell id="ih_uVpgDDXR5YDSlljtD-286" style="shape=partialRectangle;html=1;whiteSpace=wrap;connectable=0;strokeColor=inherit;overflow=hidden;fillColor=none;top=0;left=0;bottom=0;right=0;pointerEvents=1;fontSize=16;" vertex="1" parent="ih_uVpgDDXR5YDSlljtD-283">
          <mxGeometry x="617" width="308" height="101" as="geometry">
            <mxRectangle width="308" height="101" as="alternateBounds" />
          </mxGeometry>
        </mxCell>
        <mxCell id="ih_uVpgDDXR5YDSlljtD-287" style="shape=partialRectangle;html=1;whiteSpace=wrap;connectable=0;strokeColor=inherit;overflow=hidden;fillColor=none;top=0;left=0;bottom=0;right=0;pointerEvents=1;fontSize=16;" vertex="1" parent="ih_uVpgDDXR5YDSlljtD-283">
          <mxGeometry x="925" width="308" height="101" as="geometry">
            <mxRectangle width="308" height="101" as="alternateBounds" />
          </mxGeometry>
        </mxCell>
        <mxCell id="ih_uVpgDDXR5YDSlljtD-288" style="shape=partialRectangle;html=1;whiteSpace=wrap;connectable=0;strokeColor=inherit;overflow=hidden;fillColor=none;top=0;left=0;bottom=0;right=0;pointerEvents=1;fontSize=16;" vertex="1" parent="ih_uVpgDDXR5YDSlljtD-283">
          <mxGeometry x="1233" width="309" height="101" as="geometry">
            <mxRectangle width="309" height="101" as="alternateBounds" />
          </mxGeometry>
        </mxCell>
        <mxCell id="ih_uVpgDDXR5YDSlljtD-289" style="shape=partialRectangle;html=1;whiteSpace=wrap;connectable=0;strokeColor=inherit;overflow=hidden;fillColor=none;top=0;left=0;bottom=0;right=0;pointerEvents=1;fontSize=16;" vertex="1" parent="ih_uVpgDDXR5YDSlljtD-283">
          <mxGeometry x="1542" width="308" height="101" as="geometry">
            <mxRectangle width="308" height="101" as="alternateBounds" />
          </mxGeometry>
        </mxCell>
        <mxCell id="ih_uVpgDDXR5YDSlljtD-294" value="" style="html=1;verticalLabelPosition=bottom;align=center;labelBackgroundColor=#ffffff;verticalAlign=top;strokeWidth=2;strokeColor=#0080F0;shadow=0;dashed=0;shape=mxgraph.ios7.icons.trashcan;" vertex="1" parent="ih_uVpgDDXR5YDSlljtD-260">
          <mxGeometry x="1670" y="228" width="40" height="40" as="geometry" />
        </mxCell>
        <mxCell id="ih_uVpgDDXR5YDSlljtD-290" value="" style="rounded=0;whiteSpace=wrap;html=1;align=left;" vertex="1" parent="ih_uVpgDDXR5YDSlljtD-246">
          <mxGeometry x="340" y="450" width="1630" height="60" as="geometry" />
        </mxCell>
        <mxCell id="ih_uVpgDDXR5YDSlljtD-291" value="&lt;font style=&quot;font-size: 26px;&quot;&gt;Scan consumable&lt;/font&gt;" style="text;html=1;align=right;verticalAlign=middle;whiteSpace=wrap;rounded=0;fontSize=20;" vertex="1" parent="ih_uVpgDDXR5YDSlljtD-246">
          <mxGeometry x="120" y="465" width="210" height="30" as="geometry" />
        </mxCell>
        <mxCell id="ih_uVpgDDXR5YDSlljtD-345" value="&lt;span style=&quot;font-size: 44px;&quot;&gt;Scan and select a new consunable&lt;/span&gt;" style="text;html=1;align=left;verticalAlign=middle;whiteSpace=wrap;rounded=0;fontFamily=Helvetica;fontSize=16;fontColor=default;" vertex="1" parent="ih_uVpgDDXR5YDSlljtD-246">
          <mxGeometry x="380" y="460" width="380" height="30" as="geometry" />
        </mxCell>
        <mxCell id="ih_uVpgDDXR5YDSlljtD-368" value="&lt;span style=&quot;font-size: 34px;&quot;&gt;Attach&lt;/span&gt;" style="rounded=1;whiteSpace=wrap;html=1;fillColor=#3b9edd;fontColor=#ffffff;strokeColor=#001DBC;" vertex="1" parent="ih_uVpgDDXR5YDSlljtD-246">
          <mxGeometry x="120" y="1440" width="1850" height="80" as="geometry" />
        </mxCell>
        <mxCell id="ih_uVpgDDXR5YDSlljtD-295" style="edgeStyle=orthogonalEdgeStyle;rounded=0;orthogonalLoop=1;jettySize=auto;html=1;exitX=1;exitY=0.5;exitDx=0;exitDy=0;fontFamily=Helvetica;fontSize=16;fontColor=default;strokeWidth=4;strokeColor=#CC99FF;" edge="1" parent="1" source="ih_uVpgDDXR5YDSlljtD-231" target="ih_uVpgDDXR5YDSlljtD-235">
          <mxGeometry relative="1" as="geometry">
            <Array as="points">
              <mxPoint x="4330" y="-1240" />
              <mxPoint x="4330" y="-1160" />
            </Array>
          </mxGeometry>
        </mxCell>
        <mxCell id="ih_uVpgDDXR5YDSlljtD-297" style="edgeStyle=orthogonalEdgeStyle;rounded=0;orthogonalLoop=1;jettySize=auto;html=1;exitX=1;exitY=0.5;exitDx=0;exitDy=0;entryX=0;entryY=0.5;entryDx=0;entryDy=0;fontFamily=Helvetica;fontSize=16;fontColor=default;strokeWidth=4;strokeColor=#CC99FF;" edge="1" parent="1" source="ih_uVpgDDXR5YDSlljtD-245" target="ih_uVpgDDXR5YDSlljtD-276">
          <mxGeometry relative="1" as="geometry">
            <Array as="points">
              <mxPoint x="6680" y="-1068" />
              <mxPoint x="6680" y="-900" />
            </Array>
          </mxGeometry>
        </mxCell>
        <mxCell id="ih_uVpgDDXR5YDSlljtD-298" value="" style="group" vertex="1" connectable="0" parent="1">
          <mxGeometry x="9360" y="-1720" width="2080" height="1650" as="geometry" />
        </mxCell>
        <mxCell id="ih_uVpgDDXR5YDSlljtD-299" value="" style="rounded=0;whiteSpace=wrap;html=1;fillColor=default;" vertex="1" parent="ih_uVpgDDXR5YDSlljtD-298">
          <mxGeometry x="32" width="2048" height="1650" as="geometry" />
        </mxCell>
        <mxCell id="ih_uVpgDDXR5YDSlljtD-300" value="&lt;font style=&quot;font-size: 26px;&quot;&gt;&amp;nbsp;XXXXXX&lt;/font&gt;" style="rounded=0;whiteSpace=wrap;html=1;align=left;" vertex="1" parent="ih_uVpgDDXR5YDSlljtD-298">
          <mxGeometry x="347.33" y="120" width="1412.67" height="60" as="geometry" />
        </mxCell>
        <mxCell id="ih_uVpgDDXR5YDSlljtD-301" value="&lt;span style=&quot;font-size: 26px;&quot;&gt;&amp;nbsp;XXXXXX&lt;/span&gt;" style="rounded=0;whiteSpace=wrap;html=1;align=left;" vertex="1" parent="ih_uVpgDDXR5YDSlljtD-298">
          <mxGeometry x="347.33" y="200" width="1412.67" height="60" as="geometry" />
        </mxCell>
        <mxCell id="ih_uVpgDDXR5YDSlljtD-302" value="&lt;span style=&quot;font-size: 26px;&quot;&gt;&amp;nbsp;XXXXXX&lt;/span&gt;" style="rounded=0;whiteSpace=wrap;html=1;align=left;" vertex="1" parent="ih_uVpgDDXR5YDSlljtD-298">
          <mxGeometry x="347.33" y="280" width="1412.67" height="60" as="geometry" />
        </mxCell>
        <mxCell id="ih_uVpgDDXR5YDSlljtD-303" value="Production Order" style="text;html=1;align=right;verticalAlign=middle;whiteSpace=wrap;rounded=0;fontSize=26;" vertex="1" parent="ih_uVpgDDXR5YDSlljtD-298">
          <mxGeometry x="80.66666666666667" y="135" width="256" height="30" as="geometry" />
        </mxCell>
        <mxCell id="ih_uVpgDDXR5YDSlljtD-304" value="Resource" style="text;html=1;align=right;verticalAlign=middle;whiteSpace=wrap;rounded=0;fontSize=26;" vertex="1" parent="ih_uVpgDDXR5YDSlljtD-298">
          <mxGeometry x="80.66666666666667" y="295" width="256" height="30" as="geometry" />
        </mxCell>
        <mxCell id="ih_uVpgDDXR5YDSlljtD-305" value="Step" style="text;html=1;align=right;verticalAlign=middle;whiteSpace=wrap;rounded=0;fontSize=26;" vertex="1" parent="ih_uVpgDDXR5YDSlljtD-298">
          <mxGeometry x="70" y="215" width="266.6666666666667" height="30" as="geometry" />
        </mxCell>
        <mxCell id="ih_uVpgDDXR5YDSlljtD-306" value="" style="endArrow=none;html=1;rounded=0;entryX=1;entryY=0.25;entryDx=0;entryDy=0;" edge="1" parent="ih_uVpgDDXR5YDSlljtD-298">
          <mxGeometry width="50" height="50" relative="1" as="geometry">
            <mxPoint x="32" y="400" as="sourcePoint" />
            <mxPoint x="2080" y="400" as="targetPoint" />
          </mxGeometry>
        </mxCell>
        <mxCell id="ih_uVpgDDXR5YDSlljtD-307" value="" style="endArrow=none;html=1;rounded=0;exitX=0;exitY=0.25;exitDx=0;exitDy=0;" edge="1" parent="ih_uVpgDDXR5YDSlljtD-298">
          <mxGeometry width="50" height="50" relative="1" as="geometry">
            <mxPoint x="32" y="80" as="sourcePoint" />
            <mxPoint x="2080" y="80" as="targetPoint" />
          </mxGeometry>
        </mxCell>
        <mxCell id="ih_uVpgDDXR5YDSlljtD-308" value="&lt;font style=&quot;font-size: 32px;&quot;&gt;&lt;b&gt;Attach Consumables&lt;/b&gt;&lt;/font&gt;" style="text;html=1;align=center;verticalAlign=middle;whiteSpace=wrap;rounded=0;" vertex="1" parent="ih_uVpgDDXR5YDSlljtD-298">
          <mxGeometry x="119.99666666666667" y="30" width="362.6666666666667" height="30" as="geometry" />
        </mxCell>
        <mxCell id="ih_uVpgDDXR5YDSlljtD-309" value="" style="group" vertex="1" connectable="0" parent="ih_uVpgDDXR5YDSlljtD-298">
          <mxGeometry x="1800.0033333333333" y="120" width="170.66666666666666" height="273" as="geometry" />
        </mxCell>
        <mxCell id="ih_uVpgDDXR5YDSlljtD-310" value="&lt;font style=&quot;font-size: 19px;&quot;&gt;&amp;nbsp;&lt;/font&gt;&lt;div&gt;&lt;font style=&quot;font-size: 19px;&quot;&gt;&lt;br&gt;&lt;/font&gt;&lt;/div&gt;&lt;div&gt;&lt;font style=&quot;font-size: 19px;&quot;&gt;Search&lt;/font&gt;&lt;/div&gt;" style="rounded=1;whiteSpace=wrap;html=1;" vertex="1" parent="ih_uVpgDDXR5YDSlljtD-309">
          <mxGeometry width="170.66666666666666" height="220" as="geometry" />
        </mxCell>
        <mxCell id="ih_uVpgDDXR5YDSlljtD-311" value="" style="sketch=0;pointerEvents=1;shadow=0;dashed=0;html=1;strokeColor=none;fillColor=#505050;labelPosition=center;verticalLabelPosition=bottom;verticalAlign=top;outlineConnect=0;align=center;shape=mxgraph.office.concepts.search;" vertex="1" parent="ih_uVpgDDXR5YDSlljtD-309">
          <mxGeometry x="64" y="70" width="42.666666666666664" height="39" as="geometry" />
        </mxCell>
        <mxCell id="ih_uVpgDDXR5YDSlljtD-312" value="" style="group" vertex="1" connectable="0" parent="ih_uVpgDDXR5YDSlljtD-298">
          <mxGeometry x="120" y="571.5" width="1850" height="507" as="geometry" />
        </mxCell>
        <mxCell id="ih_uVpgDDXR5YDSlljtD-313" value="" style="shape=table;startSize=0;container=1;collapsible=0;childLayout=tableLayout;fontSize=16;" vertex="1" parent="ih_uVpgDDXR5YDSlljtD-312">
          <mxGeometry width="1850" height="498.5" as="geometry" />
        </mxCell>
        <mxCell id="ih_uVpgDDXR5YDSlljtD-314" value="" style="shape=tableRow;horizontal=0;startSize=0;swimlaneHead=0;swimlaneBody=0;strokeColor=inherit;top=0;left=0;bottom=0;right=0;collapsible=0;dropTarget=0;fillColor=none;points=[[0,0.5],[1,0.5]];portConstraint=eastwest;fontSize=16;" vertex="1" parent="ih_uVpgDDXR5YDSlljtD-313">
          <mxGeometry width="1850" height="99" as="geometry" />
        </mxCell>
        <mxCell id="ih_uVpgDDXR5YDSlljtD-315" value="&lt;font style=&quot;font-size: 26px;&quot;&gt;Part Number&lt;/font&gt;" style="shape=partialRectangle;html=1;whiteSpace=wrap;connectable=0;strokeColor=inherit;overflow=hidden;fillColor=none;top=0;left=0;bottom=0;right=0;pointerEvents=1;fontSize=16;" vertex="1" parent="ih_uVpgDDXR5YDSlljtD-314">
          <mxGeometry width="308" height="99" as="geometry">
            <mxRectangle width="308" height="99" as="alternateBounds" />
          </mxGeometry>
        </mxCell>
        <mxCell id="ih_uVpgDDXR5YDSlljtD-316" value="&lt;span style=&quot;font-size: 26px;&quot;&gt;Part Number Description&lt;/span&gt;" style="shape=partialRectangle;html=1;whiteSpace=wrap;connectable=0;strokeColor=inherit;overflow=hidden;fillColor=none;top=0;left=0;bottom=0;right=0;pointerEvents=1;fontSize=16;" vertex="1" parent="ih_uVpgDDXR5YDSlljtD-314">
          <mxGeometry x="308" width="309" height="99" as="geometry">
            <mxRectangle width="309" height="99" as="alternateBounds" />
          </mxGeometry>
        </mxCell>
        <mxCell id="ih_uVpgDDXR5YDSlljtD-317" value="&lt;span style=&quot;font-size: 26px;&quot;&gt;Consumable&lt;/span&gt;" style="shape=partialRectangle;html=1;whiteSpace=wrap;connectable=0;strokeColor=inherit;overflow=hidden;fillColor=none;top=0;left=0;bottom=0;right=0;pointerEvents=1;fontSize=16;" vertex="1" parent="ih_uVpgDDXR5YDSlljtD-314">
          <mxGeometry x="617" width="308" height="99" as="geometry">
            <mxRectangle width="308" height="99" as="alternateBounds" />
          </mxGeometry>
        </mxCell>
        <mxCell id="ih_uVpgDDXR5YDSlljtD-318" value="&lt;span style=&quot;font-size: 26px;&quot;&gt;Qty&lt;/span&gt;" style="shape=partialRectangle;html=1;whiteSpace=wrap;connectable=0;strokeColor=inherit;overflow=hidden;fillColor=none;top=0;left=0;bottom=0;right=0;pointerEvents=1;fontSize=16;" vertex="1" parent="ih_uVpgDDXR5YDSlljtD-314">
          <mxGeometry x="925" width="308" height="99" as="geometry">
            <mxRectangle width="308" height="99" as="alternateBounds" />
          </mxGeometry>
        </mxCell>
        <mxCell id="ih_uVpgDDXR5YDSlljtD-319" value="&lt;span style=&quot;font-size: 26px;&quot;&gt;Unit&lt;/span&gt;" style="shape=partialRectangle;html=1;whiteSpace=wrap;connectable=0;strokeColor=inherit;overflow=hidden;fillColor=none;top=0;left=0;bottom=0;right=0;pointerEvents=1;fontSize=16;" vertex="1" parent="ih_uVpgDDXR5YDSlljtD-314">
          <mxGeometry x="1233" width="309" height="99" as="geometry">
            <mxRectangle width="309" height="99" as="alternateBounds" />
          </mxGeometry>
        </mxCell>
        <mxCell id="ih_uVpgDDXR5YDSlljtD-320" style="shape=partialRectangle;html=1;whiteSpace=wrap;connectable=0;strokeColor=inherit;overflow=hidden;fillColor=none;top=0;left=0;bottom=0;right=0;pointerEvents=1;fontSize=16;" vertex="1" parent="ih_uVpgDDXR5YDSlljtD-314">
          <mxGeometry x="1542" width="308" height="99" as="geometry">
            <mxRectangle width="308" height="99" as="alternateBounds" />
          </mxGeometry>
        </mxCell>
        <mxCell id="ih_uVpgDDXR5YDSlljtD-321" value="" style="shape=tableRow;horizontal=0;startSize=0;swimlaneHead=0;swimlaneBody=0;strokeColor=inherit;top=0;left=0;bottom=0;right=0;collapsible=0;dropTarget=0;fillColor=none;points=[[0,0.5],[1,0.5]];portConstraint=eastwest;fontSize=16;" vertex="1" parent="ih_uVpgDDXR5YDSlljtD-313">
          <mxGeometry y="99" width="1850" height="99" as="geometry" />
        </mxCell>
        <mxCell id="ih_uVpgDDXR5YDSlljtD-322" value="&lt;font style=&quot;font-size: 26px;&quot;&gt;3334XXXXXX&lt;/font&gt;" style="shape=partialRectangle;html=1;whiteSpace=wrap;connectable=0;strokeColor=inherit;overflow=hidden;fillColor=none;top=0;left=0;bottom=0;right=0;pointerEvents=1;fontSize=16;" vertex="1" parent="ih_uVpgDDXR5YDSlljtD-321">
          <mxGeometry width="308" height="99" as="geometry">
            <mxRectangle width="308" height="99" as="alternateBounds" />
          </mxGeometry>
        </mxCell>
        <mxCell id="ih_uVpgDDXR5YDSlljtD-323" value="&lt;span style=&quot;font-size: 26px;&quot;&gt;Case Top&lt;/span&gt;" style="shape=partialRectangle;html=1;whiteSpace=wrap;connectable=0;strokeColor=inherit;overflow=hidden;fillColor=none;top=0;left=0;bottom=0;right=0;pointerEvents=1;fontSize=16;" vertex="1" parent="ih_uVpgDDXR5YDSlljtD-321">
          <mxGeometry x="308" width="309" height="99" as="geometry">
            <mxRectangle width="309" height="99" as="alternateBounds" />
          </mxGeometry>
        </mxCell>
        <mxCell id="ih_uVpgDDXR5YDSlljtD-324" value="" style="shape=partialRectangle;html=1;whiteSpace=wrap;connectable=0;strokeColor=inherit;overflow=hidden;fillColor=none;top=0;left=0;bottom=0;right=0;pointerEvents=1;fontSize=16;" vertex="1" parent="ih_uVpgDDXR5YDSlljtD-321">
          <mxGeometry x="617" width="308" height="99" as="geometry">
            <mxRectangle width="308" height="99" as="alternateBounds" />
          </mxGeometry>
        </mxCell>
        <mxCell id="ih_uVpgDDXR5YDSlljtD-325" style="shape=partialRectangle;html=1;whiteSpace=wrap;connectable=0;strokeColor=inherit;overflow=hidden;fillColor=none;top=0;left=0;bottom=0;right=0;pointerEvents=1;fontSize=16;" vertex="1" parent="ih_uVpgDDXR5YDSlljtD-321">
          <mxGeometry x="925" width="308" height="99" as="geometry">
            <mxRectangle width="308" height="99" as="alternateBounds" />
          </mxGeometry>
        </mxCell>
        <mxCell id="ih_uVpgDDXR5YDSlljtD-326" style="shape=partialRectangle;html=1;whiteSpace=wrap;connectable=0;strokeColor=inherit;overflow=hidden;fillColor=none;top=0;left=0;bottom=0;right=0;pointerEvents=1;fontSize=16;" vertex="1" parent="ih_uVpgDDXR5YDSlljtD-321">
          <mxGeometry x="1233" width="309" height="99" as="geometry">
            <mxRectangle width="309" height="99" as="alternateBounds" />
          </mxGeometry>
        </mxCell>
        <mxCell id="ih_uVpgDDXR5YDSlljtD-327" style="shape=partialRectangle;html=1;whiteSpace=wrap;connectable=0;strokeColor=inherit;overflow=hidden;fillColor=none;top=0;left=0;bottom=0;right=0;pointerEvents=1;fontSize=16;" vertex="1" parent="ih_uVpgDDXR5YDSlljtD-321">
          <mxGeometry x="1542" width="308" height="99" as="geometry">
            <mxRectangle width="308" height="99" as="alternateBounds" />
          </mxGeometry>
        </mxCell>
        <mxCell id="ih_uVpgDDXR5YDSlljtD-328" value="" style="shape=tableRow;horizontal=0;startSize=0;swimlaneHead=0;swimlaneBody=0;strokeColor=inherit;top=0;left=0;bottom=0;right=0;collapsible=0;dropTarget=0;fillColor=none;points=[[0,0.5],[1,0.5]];portConstraint=eastwest;fontSize=16;" vertex="1" parent="ih_uVpgDDXR5YDSlljtD-313">
          <mxGeometry y="198" width="1850" height="100" as="geometry" />
        </mxCell>
        <mxCell id="ih_uVpgDDXR5YDSlljtD-329" value="&lt;span style=&quot;font-size: 26px;&quot;&gt;3334XXXXXX&lt;/span&gt;" style="shape=partialRectangle;html=1;whiteSpace=wrap;connectable=0;strokeColor=inherit;overflow=hidden;fillColor=none;top=0;left=0;bottom=0;right=0;pointerEvents=1;fontSize=16;" vertex="1" parent="ih_uVpgDDXR5YDSlljtD-328">
          <mxGeometry width="308" height="100" as="geometry">
            <mxRectangle width="308" height="100" as="alternateBounds" />
          </mxGeometry>
        </mxCell>
        <mxCell id="ih_uVpgDDXR5YDSlljtD-330" value="&lt;span style=&quot;font-size: 26px;&quot;&gt;Case Bottom&lt;/span&gt;" style="shape=partialRectangle;html=1;whiteSpace=wrap;connectable=0;strokeColor=inherit;overflow=hidden;fillColor=none;top=0;left=0;bottom=0;right=0;pointerEvents=1;fontSize=16;" vertex="1" parent="ih_uVpgDDXR5YDSlljtD-328">
          <mxGeometry x="308" width="309" height="100" as="geometry">
            <mxRectangle width="309" height="100" as="alternateBounds" />
          </mxGeometry>
        </mxCell>
        <mxCell id="ih_uVpgDDXR5YDSlljtD-331" value="&lt;span style=&quot;font-size: 26px; text-align: left;&quot;&gt;334XXXXXXXXX_0003&lt;/span&gt;" style="shape=partialRectangle;html=1;whiteSpace=wrap;connectable=0;strokeColor=inherit;overflow=hidden;fillColor=none;top=0;left=0;bottom=0;right=0;pointerEvents=1;fontSize=16;" vertex="1" parent="ih_uVpgDDXR5YDSlljtD-328">
          <mxGeometry x="617" width="308" height="100" as="geometry">
            <mxRectangle width="308" height="100" as="alternateBounds" />
          </mxGeometry>
        </mxCell>
        <mxCell id="ih_uVpgDDXR5YDSlljtD-332" value="&lt;span style=&quot;font-size: 26px; text-align: left;&quot;&gt;100&lt;/span&gt;" style="shape=partialRectangle;html=1;whiteSpace=wrap;connectable=0;strokeColor=inherit;overflow=hidden;fillColor=none;top=0;left=0;bottom=0;right=0;pointerEvents=1;fontSize=16;" vertex="1" parent="ih_uVpgDDXR5YDSlljtD-328">
          <mxGeometry x="925" width="308" height="100" as="geometry">
            <mxRectangle width="308" height="100" as="alternateBounds" />
          </mxGeometry>
        </mxCell>
        <mxCell id="ih_uVpgDDXR5YDSlljtD-333" value="&lt;span style=&quot;font-size: 26px; text-align: left;&quot;&gt;EA&lt;/span&gt;" style="shape=partialRectangle;html=1;whiteSpace=wrap;connectable=0;strokeColor=inherit;overflow=hidden;fillColor=none;top=0;left=0;bottom=0;right=0;pointerEvents=1;fontSize=16;" vertex="1" parent="ih_uVpgDDXR5YDSlljtD-328">
          <mxGeometry x="1233" width="309" height="100" as="geometry">
            <mxRectangle width="309" height="100" as="alternateBounds" />
          </mxGeometry>
        </mxCell>
        <mxCell id="ih_uVpgDDXR5YDSlljtD-334" style="shape=partialRectangle;html=1;whiteSpace=wrap;connectable=0;strokeColor=inherit;overflow=hidden;fillColor=none;top=0;left=0;bottom=0;right=0;pointerEvents=1;fontSize=16;" vertex="1" parent="ih_uVpgDDXR5YDSlljtD-328">
          <mxGeometry x="1542" width="308" height="100" as="geometry">
            <mxRectangle width="308" height="100" as="alternateBounds" />
          </mxGeometry>
        </mxCell>
        <mxCell id="ih_uVpgDDXR5YDSlljtD-347" style="shape=tableRow;horizontal=0;startSize=0;swimlaneHead=0;swimlaneBody=0;strokeColor=inherit;top=0;left=0;bottom=0;right=0;collapsible=0;dropTarget=0;fillColor=none;points=[[0,0.5],[1,0.5]];portConstraint=eastwest;fontSize=16;" vertex="1" parent="ih_uVpgDDXR5YDSlljtD-313">
          <mxGeometry y="298" width="1850" height="100" as="geometry" />
        </mxCell>
        <mxCell id="ih_uVpgDDXR5YDSlljtD-348" value="&lt;span style=&quot;color: rgba(0, 0, 0, 0); font-family: monospace; font-size: 0px; text-align: start; text-wrap: nowrap;&quot;&gt;%3CmxGraphModel%3E%3Croot%3E%3CmxCell%20id%3D%220%22%2F%3E%3CmxCell%20id%3D%221%22%20parent%3D%220%22%2F%3E%3CmxCell%20id%3D%222%22%20value%3D%22%26lt%3Bspan%20style%3D%26quot%3Bfont-size%3A%2026px%3B%26quot%3B%26gt%3B3334XXXXXX%26lt%3B%2Fspan%26gt%3B%22%20style%3D%22shape%3DpartialRectangle%3Bhtml%3D1%3BwhiteSpace%3Dwrap%3Bconnectable%3D0%3BstrokeColor%3Dinherit%3Boverflow%3Dhidden%3BfillColor%3Dnone%3Btop%3D0%3Bleft%3D0%3Bbottom%3D0%3Bright%3D0%3BpointerEvents%3D1%3BfontSize%3D16%3B%22%20vertex%3D%221%22%20parent%3D%221%22%3E%3CmxGeometry%20x%3D%229480%22%20y%3D%22-950.5%22%20width%3D%22308%22%20height%3D%22100%22%20as%3D%22geometry%22%3E%3CmxRectangle%20width%3D%22308%22%20height%3D%22100%22%20as%3D%22alternateBounds%22%2F%3E%3C%2FmxGeometry%3E%3C%2FmxCell%3E%3CmxCell%20id%3D%223%22%20value%3D%22%26lt%3Bspan%20style%3D%26quot%3Bfont-size%3A%2026px%3B%26quot%3B%26gt%3BCase%20Bottom%26lt%3B%2Fspan%26gt%3B%22%20style%3D%22shape%3DpartialRectangle%3Bhtml%3D1%3BwhiteSpace%3Dwrap%3Bconnectable%3D0%3BstrokeColor%3Dinherit%3Boverflow%3Dhidden%3BfillColor%3Dnone%3Btop%3D0%3Bleft%3D0%3Bbottom%3D0%3Bright%3D0%3BpointerEvents%3D1%3BfontSize%3D16%3B%22%20vertex%3D%221%22%20parent%3D%221%22%3E%3CmxGeometry%20x%3D%229788%22%20y%3D%22-950.5%22%20width%3D%22309%22%20height%3D%22100%22%20as%3D%22geometry%22%3E%3CmxRectangle%20width%3D%22309%22%20height%3D%22100%22%20as%3D%22alternateBounds%22%2F%3E%3C%2FmxGeometry%3E%3C%2FmxCell%3E%3CmxCell%20id%3D%224%22%20value%3D%22%26lt%3Bspan%20style%3D%26quot%3Bfont-size%3A%2026px%3B%20text-align%3A%20left%3B%26quot%3B%26gt%3B334XXXXXXXXX_0003%26lt%3B%2Fspan%26gt%3B%22%20style%3D%22shape%3DpartialRectangle%3Bhtml%3D1%3BwhiteSpace%3Dwrap%3Bconnectable%3D0%3BstrokeColor%3Dinherit%3Boverflow%3Dhidden%3BfillColor%3Dnone%3Btop%3D0%3Bleft%3D0%3Bbottom%3D0%3Bright%3D0%3BpointerEvents%3D1%3BfontSize%3D16%3B%22%20vertex%3D%221%22%20parent%3D%221%22%3E%3CmxGeometry%20x%3D%2210097%22%20y%3D%22-950.5%22%20width%3D%22308%22%20height%3D%22100%22%20as%3D%22geometry%22%3E%3CmxRectangle%20width%3D%22308%22%20height%3D%22100%22%20as%3D%22alternateBounds%22%2F%3E%3C%2FmxGeometry%3E%3C%2FmxCell%3E%3CmxCell%20id%3D%225%22%20value%3D%22%26lt%3Bspan%20style%3D%26quot%3Bfont-size%3A%2026px%3B%20text-align%3A%20left%3B%26quot%3B%26gt%3B100%26lt%3B%2Fspan%26gt%3B%22%20style%3D%22shape%3DpartialRectangle%3Bhtml%3D1%3BwhiteSpace%3Dwrap%3Bconnectable%3D0%3BstrokeColor%3Dinherit%3Boverflow%3Dhidden%3BfillColor%3Dnone%3Btop%3D0%3Bleft%3D0%3Bbottom%3D0%3Bright%3D0%3BpointerEvents%3D1%3BfontSize%3D16%3B%22%20vertex%3D%221%22%20parent%3D%221%22%3E%3CmxGeometry%20x%3D%2210405%22%20y%3D%22-950.5%22%20width%3D%22308%22%20height%3D%22100%22%20as%3D%22geometry%22%3E%3CmxRectangle%20width%3D%22308%22%20height%3D%22100%22%20as%3D%22alternateBounds%22%2F%3E%3C%2FmxGeometry%3E%3C%2FmxCell%3E%3CmxCell%20id%3D%226%22%20value%3D%22%26lt%3Bspan%20style%3D%26quot%3Bfont-size%3A%2026px%3B%20text-align%3A%20left%3B%26quot%3B%26gt%3BEA%26lt%3B%2Fspan%26gt%3B%22%20style%3D%22shape%3DpartialRectangle%3Bhtml%3D1%3BwhiteSpace%3Dwrap%3Bconnectable%3D0%3BstrokeColor%3Dinherit%3Boverflow%3Dhidden%3BfillColor%3Dnone%3Btop%3D0%3Bleft%3D0%3Bbottom%3D0%3Bright%3D0%3BpointerEvents%3D1%3BfontSize%3D16%3B%22%20vertex%3D%221%22%20parent%3D%221%22%3E%3CmxGeometry%20x%3D%2210713%22%20y%3D%22-950.5%22%20width%3D%22309%22%20height%3D%22100%22%20as%3D%22geometry%22%3E%3CmxRectangle%20width%3D%22309%22%20height%3D%22100%22%20as%3D%22alternateBounds%22%2F%3E%3C%2FmxGeometry%3E%3C%2FmxCell%3E%3CmxCell%20id%3D%227%22%20style%3D%22shape%3DpartialRectangle%3Bhtml%3D1%3BwhiteSpace%3Dwrap%3Bconnectable%3D0%3BstrokeColor%3Dinherit%3Boverflow%3Dhidden%3BfillColor%3Dnone%3Btop%3D0%3Bleft%3D0%3Bbottom%3D0%3Bright%3D0%3BpointerEvents%3D1%3BfontSize%3D16%3B%22%20vertex%3D%221%22%20parent%3D%221%22%3E%3CmxGeometry%20x%3D%2211022%22%20y%3D%22-950.5%22%20width%3D%22308%22%20height%3D%22100%22%20as%3D%22geometry%22%3E%3CmxRectangle%20width%3D%22308%22%20height%3D%22100%22%20as%3D%22alternateBounds%22%2F%3E%3C%2FmxGeometry%3E%3C%2FmxCell%3E%3C%2Froot%3E%3C%2FmxGraphModel%3E&lt;/span&gt;" style="shape=partialRectangle;html=1;whiteSpace=wrap;connectable=0;strokeColor=inherit;overflow=hidden;fillColor=none;top=0;left=0;bottom=0;right=0;pointerEvents=1;fontSize=16;" vertex="1" parent="ih_uVpgDDXR5YDSlljtD-347">
          <mxGeometry width="308" height="100" as="geometry">
            <mxRectangle width="308" height="100" as="alternateBounds" />
          </mxGeometry>
        </mxCell>
        <mxCell id="ih_uVpgDDXR5YDSlljtD-349" style="shape=partialRectangle;html=1;whiteSpace=wrap;connectable=0;strokeColor=inherit;overflow=hidden;fillColor=none;top=0;left=0;bottom=0;right=0;pointerEvents=1;fontSize=16;" vertex="1" parent="ih_uVpgDDXR5YDSlljtD-347">
          <mxGeometry x="308" width="309" height="100" as="geometry">
            <mxRectangle width="309" height="100" as="alternateBounds" />
          </mxGeometry>
        </mxCell>
        <mxCell id="ih_uVpgDDXR5YDSlljtD-350" style="shape=partialRectangle;html=1;whiteSpace=wrap;connectable=0;strokeColor=inherit;overflow=hidden;fillColor=none;top=0;left=0;bottom=0;right=0;pointerEvents=1;fontSize=16;" vertex="1" parent="ih_uVpgDDXR5YDSlljtD-347">
          <mxGeometry x="617" width="308" height="100" as="geometry">
            <mxRectangle width="308" height="100" as="alternateBounds" />
          </mxGeometry>
        </mxCell>
        <mxCell id="ih_uVpgDDXR5YDSlljtD-351" style="shape=partialRectangle;html=1;whiteSpace=wrap;connectable=0;strokeColor=inherit;overflow=hidden;fillColor=none;top=0;left=0;bottom=0;right=0;pointerEvents=1;fontSize=16;" vertex="1" parent="ih_uVpgDDXR5YDSlljtD-347">
          <mxGeometry x="925" width="308" height="100" as="geometry">
            <mxRectangle width="308" height="100" as="alternateBounds" />
          </mxGeometry>
        </mxCell>
        <mxCell id="ih_uVpgDDXR5YDSlljtD-352" style="shape=partialRectangle;html=1;whiteSpace=wrap;connectable=0;strokeColor=inherit;overflow=hidden;fillColor=none;top=0;left=0;bottom=0;right=0;pointerEvents=1;fontSize=16;" vertex="1" parent="ih_uVpgDDXR5YDSlljtD-347">
          <mxGeometry x="1233" width="309" height="100" as="geometry">
            <mxRectangle width="309" height="100" as="alternateBounds" />
          </mxGeometry>
        </mxCell>
        <mxCell id="ih_uVpgDDXR5YDSlljtD-353" style="shape=partialRectangle;html=1;whiteSpace=wrap;connectable=0;strokeColor=inherit;overflow=hidden;fillColor=none;top=0;left=0;bottom=0;right=0;pointerEvents=1;fontSize=16;" vertex="1" parent="ih_uVpgDDXR5YDSlljtD-347">
          <mxGeometry x="1542" width="308" height="100" as="geometry">
            <mxRectangle width="308" height="100" as="alternateBounds" />
          </mxGeometry>
        </mxCell>
        <mxCell id="ih_uVpgDDXR5YDSlljtD-335" style="shape=tableRow;horizontal=0;startSize=0;swimlaneHead=0;swimlaneBody=0;strokeColor=inherit;top=0;left=0;bottom=0;right=0;collapsible=0;dropTarget=0;fillColor=none;points=[[0,0.5],[1,0.5]];portConstraint=eastwest;fontSize=16;" vertex="1" parent="ih_uVpgDDXR5YDSlljtD-313">
          <mxGeometry y="398" width="1850" height="101" as="geometry" />
        </mxCell>
        <mxCell id="ih_uVpgDDXR5YDSlljtD-336" value="&lt;span style=&quot;font-size: 26px;&quot;&gt;3334XXXXXX&lt;/span&gt;" style="shape=partialRectangle;html=1;whiteSpace=wrap;connectable=0;strokeColor=inherit;overflow=hidden;fillColor=none;top=0;left=0;bottom=0;right=0;pointerEvents=1;fontSize=16;" vertex="1" parent="ih_uVpgDDXR5YDSlljtD-335">
          <mxGeometry width="308" height="101" as="geometry">
            <mxRectangle width="308" height="101" as="alternateBounds" />
          </mxGeometry>
        </mxCell>
        <mxCell id="ih_uVpgDDXR5YDSlljtD-337" value="&lt;span style=&quot;font-size: 26px;&quot;&gt;Label&lt;/span&gt;" style="shape=partialRectangle;html=1;whiteSpace=wrap;connectable=0;strokeColor=inherit;overflow=hidden;fillColor=none;top=0;left=0;bottom=0;right=0;pointerEvents=1;fontSize=16;" vertex="1" parent="ih_uVpgDDXR5YDSlljtD-335">
          <mxGeometry x="308" width="309" height="101" as="geometry">
            <mxRectangle width="309" height="101" as="alternateBounds" />
          </mxGeometry>
        </mxCell>
        <mxCell id="ih_uVpgDDXR5YDSlljtD-338" style="shape=partialRectangle;html=1;whiteSpace=wrap;connectable=0;strokeColor=inherit;overflow=hidden;fillColor=none;top=0;left=0;bottom=0;right=0;pointerEvents=1;fontSize=16;" vertex="1" parent="ih_uVpgDDXR5YDSlljtD-335">
          <mxGeometry x="617" width="308" height="101" as="geometry">
            <mxRectangle width="308" height="101" as="alternateBounds" />
          </mxGeometry>
        </mxCell>
        <mxCell id="ih_uVpgDDXR5YDSlljtD-339" style="shape=partialRectangle;html=1;whiteSpace=wrap;connectable=0;strokeColor=inherit;overflow=hidden;fillColor=none;top=0;left=0;bottom=0;right=0;pointerEvents=1;fontSize=16;" vertex="1" parent="ih_uVpgDDXR5YDSlljtD-335">
          <mxGeometry x="925" width="308" height="101" as="geometry">
            <mxRectangle width="308" height="101" as="alternateBounds" />
          </mxGeometry>
        </mxCell>
        <mxCell id="ih_uVpgDDXR5YDSlljtD-340" style="shape=partialRectangle;html=1;whiteSpace=wrap;connectable=0;strokeColor=inherit;overflow=hidden;fillColor=none;top=0;left=0;bottom=0;right=0;pointerEvents=1;fontSize=16;" vertex="1" parent="ih_uVpgDDXR5YDSlljtD-335">
          <mxGeometry x="1233" width="309" height="101" as="geometry">
            <mxRectangle width="309" height="101" as="alternateBounds" />
          </mxGeometry>
        </mxCell>
        <mxCell id="ih_uVpgDDXR5YDSlljtD-341" style="shape=partialRectangle;html=1;whiteSpace=wrap;connectable=0;strokeColor=inherit;overflow=hidden;fillColor=none;top=0;left=0;bottom=0;right=0;pointerEvents=1;fontSize=16;" vertex="1" parent="ih_uVpgDDXR5YDSlljtD-335">
          <mxGeometry x="1542" width="308" height="101" as="geometry">
            <mxRectangle width="308" height="101" as="alternateBounds" />
          </mxGeometry>
        </mxCell>
        <mxCell id="ih_uVpgDDXR5YDSlljtD-342" value="" style="html=1;verticalLabelPosition=bottom;align=center;labelBackgroundColor=#ffffff;verticalAlign=top;strokeWidth=2;strokeColor=#0080F0;shadow=0;dashed=0;shape=mxgraph.ios7.icons.trashcan;" vertex="1" parent="ih_uVpgDDXR5YDSlljtD-312">
          <mxGeometry x="1670" y="228" width="40" height="40" as="geometry" />
        </mxCell>
        <mxCell id="ih_uVpgDDXR5YDSlljtD-354" value="&lt;span style=&quot;font-size: 26px;&quot;&gt;3334XXXXXX&lt;/span&gt;" style="shape=partialRectangle;html=1;whiteSpace=wrap;connectable=0;strokeColor=inherit;overflow=hidden;fillColor=none;top=0;left=0;bottom=0;right=0;pointerEvents=1;fontSize=16;" vertex="1" parent="ih_uVpgDDXR5YDSlljtD-312">
          <mxGeometry y="298.5" width="308" height="100" as="geometry">
            <mxRectangle width="308" height="100" as="alternateBounds" />
          </mxGeometry>
        </mxCell>
        <mxCell id="ih_uVpgDDXR5YDSlljtD-355" value="&lt;span style=&quot;font-size: 26px;&quot;&gt;Case Bottom&lt;/span&gt;" style="shape=partialRectangle;html=1;whiteSpace=wrap;connectable=0;strokeColor=inherit;overflow=hidden;fillColor=none;top=0;left=0;bottom=0;right=0;pointerEvents=1;fontSize=16;" vertex="1" parent="ih_uVpgDDXR5YDSlljtD-312">
          <mxGeometry x="308" y="298.5" width="309" height="100" as="geometry">
            <mxRectangle width="309" height="100" as="alternateBounds" />
          </mxGeometry>
        </mxCell>
        <mxCell id="ih_uVpgDDXR5YDSlljtD-356" value="&lt;span style=&quot;font-size: 26px; text-align: left;&quot;&gt;334XXXXXXXXX_0004&lt;/span&gt;" style="shape=partialRectangle;html=1;whiteSpace=wrap;connectable=0;strokeColor=inherit;overflow=hidden;fillColor=none;top=0;left=0;bottom=0;right=0;pointerEvents=1;fontSize=16;" vertex="1" parent="ih_uVpgDDXR5YDSlljtD-312">
          <mxGeometry x="617" y="298.5" width="308" height="100" as="geometry">
            <mxRectangle width="308" height="100" as="alternateBounds" />
          </mxGeometry>
        </mxCell>
        <mxCell id="ih_uVpgDDXR5YDSlljtD-357" value="&lt;span style=&quot;font-size: 26px; text-align: left;&quot;&gt;100&lt;/span&gt;" style="shape=partialRectangle;html=1;whiteSpace=wrap;connectable=0;strokeColor=inherit;overflow=hidden;fillColor=none;top=0;left=0;bottom=0;right=0;pointerEvents=1;fontSize=16;" vertex="1" parent="ih_uVpgDDXR5YDSlljtD-312">
          <mxGeometry x="925" y="298.5" width="308" height="100" as="geometry">
            <mxRectangle width="308" height="100" as="alternateBounds" />
          </mxGeometry>
        </mxCell>
        <mxCell id="ih_uVpgDDXR5YDSlljtD-358" value="&lt;span style=&quot;font-size: 26px; text-align: left;&quot;&gt;EA&lt;/span&gt;" style="shape=partialRectangle;html=1;whiteSpace=wrap;connectable=0;strokeColor=inherit;overflow=hidden;fillColor=none;top=0;left=0;bottom=0;right=0;pointerEvents=1;fontSize=16;" vertex="1" parent="ih_uVpgDDXR5YDSlljtD-312">
          <mxGeometry x="1233" y="298.5" width="309" height="100" as="geometry">
            <mxRectangle width="309" height="100" as="alternateBounds" />
          </mxGeometry>
        </mxCell>
        <mxCell id="ih_uVpgDDXR5YDSlljtD-359" style="shape=partialRectangle;html=1;whiteSpace=wrap;connectable=0;strokeColor=inherit;overflow=hidden;fillColor=none;top=0;left=0;bottom=0;right=0;pointerEvents=1;fontSize=16;" vertex="1" parent="ih_uVpgDDXR5YDSlljtD-312">
          <mxGeometry x="1542" y="298.5" width="308" height="100" as="geometry">
            <mxRectangle width="308" height="100" as="alternateBounds" />
          </mxGeometry>
        </mxCell>
        <mxCell id="ih_uVpgDDXR5YDSlljtD-360" value="" style="html=1;verticalLabelPosition=bottom;align=center;labelBackgroundColor=#ffffff;verticalAlign=top;strokeWidth=2;strokeColor=#0080F0;shadow=0;dashed=0;shape=mxgraph.ios7.icons.trashcan;" vertex="1" parent="ih_uVpgDDXR5YDSlljtD-312">
          <mxGeometry x="1676" y="328.5" width="40" height="40" as="geometry" />
        </mxCell>
        <mxCell id="ih_uVpgDDXR5YDSlljtD-343" value="" style="rounded=0;whiteSpace=wrap;html=1;align=left;" vertex="1" parent="ih_uVpgDDXR5YDSlljtD-298">
          <mxGeometry x="340" y="450" width="1630" height="60" as="geometry" />
        </mxCell>
        <mxCell id="ih_uVpgDDXR5YDSlljtD-344" value="&lt;font style=&quot;font-size: 26px;&quot;&gt;Scan consumable&lt;/font&gt;" style="text;html=1;align=right;verticalAlign=middle;whiteSpace=wrap;rounded=0;fontSize=20;" vertex="1" parent="ih_uVpgDDXR5YDSlljtD-298">
          <mxGeometry x="120" y="465" width="210" height="30" as="geometry" />
        </mxCell>
        <mxCell id="ih_uVpgDDXR5YDSlljtD-369" value="&lt;span style=&quot;font-size: 34px;&quot;&gt;Attach&lt;/span&gt;" style="rounded=1;whiteSpace=wrap;html=1;fillColor=#3b9edd;fontColor=#ffffff;strokeColor=#001DBC;" vertex="1" parent="ih_uVpgDDXR5YDSlljtD-298">
          <mxGeometry x="120.67000000000007" y="1420" width="1850" height="80" as="geometry" />
        </mxCell>
        <mxCell id="ih_uVpgDDXR5YDSlljtD-346" style="edgeStyle=orthogonalEdgeStyle;rounded=0;orthogonalLoop=1;jettySize=auto;html=1;exitX=1;exitY=0.5;exitDx=0;exitDy=0;entryX=0;entryY=0.5;entryDx=0;entryDy=0;fontFamily=Helvetica;fontSize=16;fontColor=default;strokeWidth=4;strokeColor=#CC99FF;" edge="1" parent="1" source="ih_uVpgDDXR5YDSlljtD-345" target="ih_uVpgDDXR5YDSlljtD-347">
          <mxGeometry relative="1" as="geometry">
            <Array as="points">
              <mxPoint x="9160" y="-1240" />
              <mxPoint x="9160" y="-800" />
            </Array>
          </mxGeometry>
        </mxCell>
        <mxCell id="ih_uVpgDDXR5YDSlljtD-361" value="&lt;font style=&quot;font-size: 32px;&quot;&gt;Add a new line&lt;/font&gt;" style="edgeLabel;html=1;align=center;verticalAlign=middle;resizable=0;points=[];pointerEvents=1;strokeColor=inherit;fontFamily=Helvetica;fontSize=16;fontColor=default;fillColor=none;" vertex="1" connectable="0" parent="ih_uVpgDDXR5YDSlljtD-346">
          <mxGeometry x="0.0013" y="7" relative="1" as="geometry">
            <mxPoint x="421" y="207" as="offset" />
          </mxGeometry>
        </mxCell>
        <mxCell id="ih_uVpgDDXR5YDSlljtD-370" value="" style="group" vertex="1" connectable="0" parent="1">
          <mxGeometry x="2080" y="480" width="2080" height="1650" as="geometry" />
        </mxCell>
        <mxCell id="ih_uVpgDDXR5YDSlljtD-371" value="" style="rounded=0;whiteSpace=wrap;html=1;fillColor=default;" vertex="1" parent="ih_uVpgDDXR5YDSlljtD-370">
          <mxGeometry x="32" width="2048" height="1650" as="geometry" />
        </mxCell>
        <mxCell id="ih_uVpgDDXR5YDSlljtD-372" value="&lt;font style=&quot;font-size: 26px;&quot;&gt;&amp;nbsp;XXXXXX&lt;/font&gt;" style="rounded=0;whiteSpace=wrap;html=1;align=left;" vertex="1" parent="ih_uVpgDDXR5YDSlljtD-370">
          <mxGeometry x="347.33" y="120" width="1412.67" height="60" as="geometry" />
        </mxCell>
        <mxCell id="ih_uVpgDDXR5YDSlljtD-373" value="&lt;span style=&quot;font-size: 26px;&quot;&gt;&amp;nbsp;XXXXXX&lt;/span&gt;" style="rounded=0;whiteSpace=wrap;html=1;align=left;" vertex="1" parent="ih_uVpgDDXR5YDSlljtD-370">
          <mxGeometry x="347.33" y="200" width="1412.67" height="60" as="geometry" />
        </mxCell>
        <mxCell id="ih_uVpgDDXR5YDSlljtD-374" value="&lt;span style=&quot;font-size: 26px;&quot;&gt;&amp;nbsp;XXXXXX&lt;/span&gt;" style="rounded=0;whiteSpace=wrap;html=1;align=left;" vertex="1" parent="ih_uVpgDDXR5YDSlljtD-370">
          <mxGeometry x="347.33" y="280" width="1412.67" height="60" as="geometry" />
        </mxCell>
        <mxCell id="ih_uVpgDDXR5YDSlljtD-375" value="Production Order" style="text;html=1;align=right;verticalAlign=middle;whiteSpace=wrap;rounded=0;fontSize=26;" vertex="1" parent="ih_uVpgDDXR5YDSlljtD-370">
          <mxGeometry x="80.66666666666667" y="135" width="256" height="30" as="geometry" />
        </mxCell>
        <mxCell id="ih_uVpgDDXR5YDSlljtD-376" value="Resource" style="text;html=1;align=right;verticalAlign=middle;whiteSpace=wrap;rounded=0;fontSize=26;" vertex="1" parent="ih_uVpgDDXR5YDSlljtD-370">
          <mxGeometry x="80.66666666666667" y="295" width="256" height="30" as="geometry" />
        </mxCell>
        <mxCell id="ih_uVpgDDXR5YDSlljtD-377" value="Step" style="text;html=1;align=right;verticalAlign=middle;whiteSpace=wrap;rounded=0;fontSize=26;" vertex="1" parent="ih_uVpgDDXR5YDSlljtD-370">
          <mxGeometry x="70" y="215" width="266.6666666666667" height="30" as="geometry" />
        </mxCell>
        <mxCell id="ih_uVpgDDXR5YDSlljtD-378" value="" style="endArrow=none;html=1;rounded=0;entryX=1;entryY=0.25;entryDx=0;entryDy=0;" edge="1" parent="ih_uVpgDDXR5YDSlljtD-370">
          <mxGeometry width="50" height="50" relative="1" as="geometry">
            <mxPoint x="32" y="400" as="sourcePoint" />
            <mxPoint x="2080" y="400" as="targetPoint" />
          </mxGeometry>
        </mxCell>
        <mxCell id="ih_uVpgDDXR5YDSlljtD-379" value="" style="endArrow=none;html=1;rounded=0;exitX=0;exitY=0.25;exitDx=0;exitDy=0;" edge="1" parent="ih_uVpgDDXR5YDSlljtD-370">
          <mxGeometry width="50" height="50" relative="1" as="geometry">
            <mxPoint x="32" y="80" as="sourcePoint" />
            <mxPoint x="2080" y="80" as="targetPoint" />
          </mxGeometry>
        </mxCell>
        <mxCell id="ih_uVpgDDXR5YDSlljtD-380" value="&lt;font style=&quot;font-size: 32px;&quot;&gt;&lt;b&gt;Attach Consumables&lt;/b&gt;&lt;/font&gt;" style="text;html=1;align=center;verticalAlign=middle;whiteSpace=wrap;rounded=0;" vertex="1" parent="ih_uVpgDDXR5YDSlljtD-370">
          <mxGeometry x="119.99666666666667" y="30" width="362.6666666666667" height="30" as="geometry" />
        </mxCell>
        <mxCell id="ih_uVpgDDXR5YDSlljtD-381" value="" style="group" vertex="1" connectable="0" parent="ih_uVpgDDXR5YDSlljtD-370">
          <mxGeometry x="1800.0033333333333" y="120" width="170.66666666666666" height="273" as="geometry" />
        </mxCell>
        <mxCell id="ih_uVpgDDXR5YDSlljtD-382" value="&lt;font style=&quot;font-size: 19px;&quot;&gt;&amp;nbsp;&lt;/font&gt;&lt;div&gt;&lt;font style=&quot;font-size: 19px;&quot;&gt;&lt;br&gt;&lt;/font&gt;&lt;/div&gt;&lt;div&gt;&lt;font style=&quot;font-size: 19px;&quot;&gt;Search&lt;/font&gt;&lt;/div&gt;" style="rounded=1;whiteSpace=wrap;html=1;" vertex="1" parent="ih_uVpgDDXR5YDSlljtD-381">
          <mxGeometry width="170.66666666666666" height="220" as="geometry" />
        </mxCell>
        <mxCell id="ih_uVpgDDXR5YDSlljtD-383" value="" style="sketch=0;pointerEvents=1;shadow=0;dashed=0;html=1;strokeColor=none;fillColor=#505050;labelPosition=center;verticalLabelPosition=bottom;verticalAlign=top;outlineConnect=0;align=center;shape=mxgraph.office.concepts.search;" vertex="1" parent="ih_uVpgDDXR5YDSlljtD-381">
          <mxGeometry x="64" y="70" width="42.666666666666664" height="39" as="geometry" />
        </mxCell>
        <mxCell id="ih_uVpgDDXR5YDSlljtD-384" value="" style="group" vertex="1" connectable="0" parent="ih_uVpgDDXR5YDSlljtD-370">
          <mxGeometry x="120" y="571.5" width="1880" height="507" as="geometry" />
        </mxCell>
        <mxCell id="ih_uVpgDDXR5YDSlljtD-419" value="Text" style="text;html=1;align=center;verticalAlign=middle;whiteSpace=wrap;rounded=0;fontFamily=Helvetica;fontSize=16;fontColor=default;" vertex="1" parent="ih_uVpgDDXR5YDSlljtD-384">
          <mxGeometry x="1760" y="69" width="60" height="30" as="geometry" />
        </mxCell>
        <mxCell id="ih_uVpgDDXR5YDSlljtD-385" value="" style="shape=table;startSize=0;container=1;collapsible=0;childLayout=tableLayout;fontSize=16;" vertex="1" parent="ih_uVpgDDXR5YDSlljtD-384">
          <mxGeometry width="1850" height="398.5" as="geometry" />
        </mxCell>
        <mxCell id="ih_uVpgDDXR5YDSlljtD-386" value="" style="shape=tableRow;horizontal=0;startSize=0;swimlaneHead=0;swimlaneBody=0;strokeColor=inherit;top=0;left=0;bottom=0;right=0;collapsible=0;dropTarget=0;fillColor=none;points=[[0,0.5],[1,0.5]];portConstraint=eastwest;fontSize=16;" vertex="1" parent="ih_uVpgDDXR5YDSlljtD-385">
          <mxGeometry width="1850" height="99" as="geometry" />
        </mxCell>
        <mxCell id="ih_uVpgDDXR5YDSlljtD-387" value="&lt;font style=&quot;font-size: 26px;&quot;&gt;Part Number&lt;/font&gt;" style="shape=partialRectangle;html=1;whiteSpace=wrap;connectable=0;strokeColor=inherit;overflow=hidden;fillColor=none;top=0;left=0;bottom=0;right=0;pointerEvents=1;fontSize=16;" vertex="1" parent="ih_uVpgDDXR5YDSlljtD-386">
          <mxGeometry width="308" height="99" as="geometry">
            <mxRectangle width="308" height="99" as="alternateBounds" />
          </mxGeometry>
        </mxCell>
        <mxCell id="ih_uVpgDDXR5YDSlljtD-388" value="&lt;span style=&quot;font-size: 26px;&quot;&gt;Part Number Description&lt;/span&gt;" style="shape=partialRectangle;html=1;whiteSpace=wrap;connectable=0;strokeColor=inherit;overflow=hidden;fillColor=none;top=0;left=0;bottom=0;right=0;pointerEvents=1;fontSize=16;" vertex="1" parent="ih_uVpgDDXR5YDSlljtD-386">
          <mxGeometry x="308" width="309" height="99" as="geometry">
            <mxRectangle width="309" height="99" as="alternateBounds" />
          </mxGeometry>
        </mxCell>
        <mxCell id="ih_uVpgDDXR5YDSlljtD-389" value="&lt;span style=&quot;font-size: 26px;&quot;&gt;Consumable&lt;/span&gt;" style="shape=partialRectangle;html=1;whiteSpace=wrap;connectable=0;strokeColor=inherit;overflow=hidden;fillColor=none;top=0;left=0;bottom=0;right=0;pointerEvents=1;fontSize=16;" vertex="1" parent="ih_uVpgDDXR5YDSlljtD-386">
          <mxGeometry x="617" width="308" height="99" as="geometry">
            <mxRectangle width="308" height="99" as="alternateBounds" />
          </mxGeometry>
        </mxCell>
        <mxCell id="ih_uVpgDDXR5YDSlljtD-390" value="&lt;span style=&quot;font-size: 26px;&quot;&gt;Qty&lt;/span&gt;" style="shape=partialRectangle;html=1;whiteSpace=wrap;connectable=0;strokeColor=inherit;overflow=hidden;fillColor=none;top=0;left=0;bottom=0;right=0;pointerEvents=1;fontSize=16;" vertex="1" parent="ih_uVpgDDXR5YDSlljtD-386">
          <mxGeometry x="925" width="308" height="99" as="geometry">
            <mxRectangle width="308" height="99" as="alternateBounds" />
          </mxGeometry>
        </mxCell>
        <mxCell id="ih_uVpgDDXR5YDSlljtD-391" value="&lt;span style=&quot;font-size: 26px;&quot;&gt;Unit&lt;/span&gt;" style="shape=partialRectangle;html=1;whiteSpace=wrap;connectable=0;strokeColor=inherit;overflow=hidden;fillColor=none;top=0;left=0;bottom=0;right=0;pointerEvents=1;fontSize=16;" vertex="1" parent="ih_uVpgDDXR5YDSlljtD-386">
          <mxGeometry x="1233" width="309" height="99" as="geometry">
            <mxRectangle width="309" height="99" as="alternateBounds" />
          </mxGeometry>
        </mxCell>
        <mxCell id="ih_uVpgDDXR5YDSlljtD-392" style="shape=partialRectangle;html=1;whiteSpace=wrap;connectable=0;strokeColor=inherit;overflow=hidden;fillColor=none;top=0;left=0;bottom=0;right=0;pointerEvents=1;fontSize=16;" vertex="1" parent="ih_uVpgDDXR5YDSlljtD-386">
          <mxGeometry x="1542" width="308" height="99" as="geometry">
            <mxRectangle width="308" height="99" as="alternateBounds" />
          </mxGeometry>
        </mxCell>
        <mxCell id="ih_uVpgDDXR5YDSlljtD-393" value="" style="shape=tableRow;horizontal=0;startSize=0;swimlaneHead=0;swimlaneBody=0;strokeColor=inherit;top=0;left=0;bottom=0;right=0;collapsible=0;dropTarget=0;fillColor=none;points=[[0,0.5],[1,0.5]];portConstraint=eastwest;fontSize=16;" vertex="1" parent="ih_uVpgDDXR5YDSlljtD-385">
          <mxGeometry y="99" width="1850" height="99" as="geometry" />
        </mxCell>
        <mxCell id="ih_uVpgDDXR5YDSlljtD-394" value="&lt;font style=&quot;font-size: 26px;&quot;&gt;3334XXXXXX&lt;/font&gt;" style="shape=partialRectangle;html=1;whiteSpace=wrap;connectable=0;strokeColor=inherit;overflow=hidden;fillColor=none;top=0;left=0;bottom=0;right=0;pointerEvents=1;fontSize=16;" vertex="1" parent="ih_uVpgDDXR5YDSlljtD-393">
          <mxGeometry width="308" height="99" as="geometry">
            <mxRectangle width="308" height="99" as="alternateBounds" />
          </mxGeometry>
        </mxCell>
        <mxCell id="ih_uVpgDDXR5YDSlljtD-395" value="&lt;span style=&quot;font-size: 26px;&quot;&gt;Case Top&lt;/span&gt;" style="shape=partialRectangle;html=1;whiteSpace=wrap;connectable=0;strokeColor=inherit;overflow=hidden;fillColor=none;top=0;left=0;bottom=0;right=0;pointerEvents=1;fontSize=16;" vertex="1" parent="ih_uVpgDDXR5YDSlljtD-393">
          <mxGeometry x="308" width="309" height="99" as="geometry">
            <mxRectangle width="309" height="99" as="alternateBounds" />
          </mxGeometry>
        </mxCell>
        <mxCell id="ih_uVpgDDXR5YDSlljtD-396" value="" style="shape=partialRectangle;html=1;whiteSpace=wrap;connectable=0;strokeColor=inherit;overflow=hidden;fillColor=none;top=0;left=0;bottom=0;right=0;pointerEvents=1;fontSize=16;" vertex="1" parent="ih_uVpgDDXR5YDSlljtD-393">
          <mxGeometry x="617" width="308" height="99" as="geometry">
            <mxRectangle width="308" height="99" as="alternateBounds" />
          </mxGeometry>
        </mxCell>
        <mxCell id="ih_uVpgDDXR5YDSlljtD-397" style="shape=partialRectangle;html=1;whiteSpace=wrap;connectable=0;strokeColor=inherit;overflow=hidden;fillColor=none;top=0;left=0;bottom=0;right=0;pointerEvents=1;fontSize=16;" vertex="1" parent="ih_uVpgDDXR5YDSlljtD-393">
          <mxGeometry x="925" width="308" height="99" as="geometry">
            <mxRectangle width="308" height="99" as="alternateBounds" />
          </mxGeometry>
        </mxCell>
        <mxCell id="ih_uVpgDDXR5YDSlljtD-398" style="shape=partialRectangle;html=1;whiteSpace=wrap;connectable=0;strokeColor=inherit;overflow=hidden;fillColor=none;top=0;left=0;bottom=0;right=0;pointerEvents=1;fontSize=16;" vertex="1" parent="ih_uVpgDDXR5YDSlljtD-393">
          <mxGeometry x="1233" width="309" height="99" as="geometry">
            <mxRectangle width="309" height="99" as="alternateBounds" />
          </mxGeometry>
        </mxCell>
        <mxCell id="ih_uVpgDDXR5YDSlljtD-399" style="shape=partialRectangle;html=1;whiteSpace=wrap;connectable=0;strokeColor=inherit;overflow=hidden;fillColor=none;top=0;left=0;bottom=0;right=0;pointerEvents=1;fontSize=16;" vertex="1" parent="ih_uVpgDDXR5YDSlljtD-393">
          <mxGeometry x="1542" width="308" height="99" as="geometry">
            <mxRectangle width="308" height="99" as="alternateBounds" />
          </mxGeometry>
        </mxCell>
        <mxCell id="ih_uVpgDDXR5YDSlljtD-400" value="" style="shape=tableRow;horizontal=0;startSize=0;swimlaneHead=0;swimlaneBody=0;strokeColor=inherit;top=0;left=0;bottom=0;right=0;collapsible=0;dropTarget=0;fillColor=none;points=[[0,0.5],[1,0.5]];portConstraint=eastwest;fontSize=16;" vertex="1" parent="ih_uVpgDDXR5YDSlljtD-385">
          <mxGeometry y="198" width="1850" height="100" as="geometry" />
        </mxCell>
        <mxCell id="ih_uVpgDDXR5YDSlljtD-401" value="&lt;span style=&quot;font-size: 26px;&quot;&gt;3334XXXXXX&lt;/span&gt;" style="shape=partialRectangle;html=1;whiteSpace=wrap;connectable=0;strokeColor=inherit;overflow=hidden;fillColor=none;top=0;left=0;bottom=0;right=0;pointerEvents=1;fontSize=16;" vertex="1" parent="ih_uVpgDDXR5YDSlljtD-400">
          <mxGeometry width="308" height="100" as="geometry">
            <mxRectangle width="308" height="100" as="alternateBounds" />
          </mxGeometry>
        </mxCell>
        <mxCell id="ih_uVpgDDXR5YDSlljtD-402" value="&lt;span style=&quot;font-size: 26px;&quot;&gt;Case Bottom&lt;/span&gt;" style="shape=partialRectangle;html=1;whiteSpace=wrap;connectable=0;strokeColor=inherit;overflow=hidden;fillColor=none;top=0;left=0;bottom=0;right=0;pointerEvents=1;fontSize=16;" vertex="1" parent="ih_uVpgDDXR5YDSlljtD-400">
          <mxGeometry x="308" width="309" height="100" as="geometry">
            <mxRectangle width="309" height="100" as="alternateBounds" />
          </mxGeometry>
        </mxCell>
        <mxCell id="ih_uVpgDDXR5YDSlljtD-403" value="" style="shape=partialRectangle;html=1;whiteSpace=wrap;connectable=0;strokeColor=inherit;overflow=hidden;fillColor=none;top=0;left=0;bottom=0;right=0;pointerEvents=1;fontSize=16;" vertex="1" parent="ih_uVpgDDXR5YDSlljtD-400">
          <mxGeometry x="617" width="308" height="100" as="geometry">
            <mxRectangle width="308" height="100" as="alternateBounds" />
          </mxGeometry>
        </mxCell>
        <mxCell id="ih_uVpgDDXR5YDSlljtD-404" style="shape=partialRectangle;html=1;whiteSpace=wrap;connectable=0;strokeColor=inherit;overflow=hidden;fillColor=none;top=0;left=0;bottom=0;right=0;pointerEvents=1;fontSize=16;" vertex="1" parent="ih_uVpgDDXR5YDSlljtD-400">
          <mxGeometry x="925" width="308" height="100" as="geometry">
            <mxRectangle width="308" height="100" as="alternateBounds" />
          </mxGeometry>
        </mxCell>
        <mxCell id="ih_uVpgDDXR5YDSlljtD-405" style="shape=partialRectangle;html=1;whiteSpace=wrap;connectable=0;strokeColor=inherit;overflow=hidden;fillColor=none;top=0;left=0;bottom=0;right=0;pointerEvents=1;fontSize=16;" vertex="1" parent="ih_uVpgDDXR5YDSlljtD-400">
          <mxGeometry x="1233" width="309" height="100" as="geometry">
            <mxRectangle width="309" height="100" as="alternateBounds" />
          </mxGeometry>
        </mxCell>
        <mxCell id="ih_uVpgDDXR5YDSlljtD-406" style="shape=partialRectangle;html=1;whiteSpace=wrap;connectable=0;strokeColor=inherit;overflow=hidden;fillColor=none;top=0;left=0;bottom=0;right=0;pointerEvents=1;fontSize=16;" vertex="1" parent="ih_uVpgDDXR5YDSlljtD-400">
          <mxGeometry x="1542" width="308" height="100" as="geometry">
            <mxRectangle width="308" height="100" as="alternateBounds" />
          </mxGeometry>
        </mxCell>
        <mxCell id="ih_uVpgDDXR5YDSlljtD-407" style="shape=tableRow;horizontal=0;startSize=0;swimlaneHead=0;swimlaneBody=0;strokeColor=inherit;top=0;left=0;bottom=0;right=0;collapsible=0;dropTarget=0;fillColor=none;points=[[0,0.5],[1,0.5]];portConstraint=eastwest;fontSize=16;" vertex="1" parent="ih_uVpgDDXR5YDSlljtD-385">
          <mxGeometry y="298" width="1850" height="101" as="geometry" />
        </mxCell>
        <mxCell id="ih_uVpgDDXR5YDSlljtD-408" value="&lt;span style=&quot;font-size: 26px;&quot;&gt;3334XXXXXX&lt;/span&gt;" style="shape=partialRectangle;html=1;whiteSpace=wrap;connectable=0;strokeColor=inherit;overflow=hidden;fillColor=none;top=0;left=0;bottom=0;right=0;pointerEvents=1;fontSize=16;" vertex="1" parent="ih_uVpgDDXR5YDSlljtD-407">
          <mxGeometry width="308" height="101" as="geometry">
            <mxRectangle width="308" height="101" as="alternateBounds" />
          </mxGeometry>
        </mxCell>
        <mxCell id="ih_uVpgDDXR5YDSlljtD-409" value="&lt;span style=&quot;font-size: 26px;&quot;&gt;Label&lt;/span&gt;" style="shape=partialRectangle;html=1;whiteSpace=wrap;connectable=0;strokeColor=inherit;overflow=hidden;fillColor=none;top=0;left=0;bottom=0;right=0;pointerEvents=1;fontSize=16;" vertex="1" parent="ih_uVpgDDXR5YDSlljtD-407">
          <mxGeometry x="308" width="309" height="101" as="geometry">
            <mxRectangle width="309" height="101" as="alternateBounds" />
          </mxGeometry>
        </mxCell>
        <mxCell id="ih_uVpgDDXR5YDSlljtD-410" style="shape=partialRectangle;html=1;whiteSpace=wrap;connectable=0;strokeColor=inherit;overflow=hidden;fillColor=none;top=0;left=0;bottom=0;right=0;pointerEvents=1;fontSize=16;" vertex="1" parent="ih_uVpgDDXR5YDSlljtD-407">
          <mxGeometry x="617" width="308" height="101" as="geometry">
            <mxRectangle width="308" height="101" as="alternateBounds" />
          </mxGeometry>
        </mxCell>
        <mxCell id="ih_uVpgDDXR5YDSlljtD-411" style="shape=partialRectangle;html=1;whiteSpace=wrap;connectable=0;strokeColor=inherit;overflow=hidden;fillColor=none;top=0;left=0;bottom=0;right=0;pointerEvents=1;fontSize=16;" vertex="1" parent="ih_uVpgDDXR5YDSlljtD-407">
          <mxGeometry x="925" width="308" height="101" as="geometry">
            <mxRectangle width="308" height="101" as="alternateBounds" />
          </mxGeometry>
        </mxCell>
        <mxCell id="ih_uVpgDDXR5YDSlljtD-412" style="shape=partialRectangle;html=1;whiteSpace=wrap;connectable=0;strokeColor=inherit;overflow=hidden;fillColor=none;top=0;left=0;bottom=0;right=0;pointerEvents=1;fontSize=16;" vertex="1" parent="ih_uVpgDDXR5YDSlljtD-407">
          <mxGeometry x="1233" width="309" height="101" as="geometry">
            <mxRectangle width="309" height="101" as="alternateBounds" />
          </mxGeometry>
        </mxCell>
        <mxCell id="ih_uVpgDDXR5YDSlljtD-413" style="shape=partialRectangle;html=1;whiteSpace=wrap;connectable=0;strokeColor=inherit;overflow=hidden;fillColor=none;top=0;left=0;bottom=0;right=0;pointerEvents=1;fontSize=16;" vertex="1" parent="ih_uVpgDDXR5YDSlljtD-407">
          <mxGeometry x="1542" width="308" height="101" as="geometry">
            <mxRectangle width="308" height="101" as="alternateBounds" />
          </mxGeometry>
        </mxCell>
        <mxCell id="ih_uVpgDDXR5YDSlljtD-414" value="" style="rounded=0;whiteSpace=wrap;html=1;align=left;" vertex="1" parent="ih_uVpgDDXR5YDSlljtD-370">
          <mxGeometry x="340" y="450" width="1630" height="60" as="geometry" />
        </mxCell>
        <mxCell id="ih_uVpgDDXR5YDSlljtD-415" value="&lt;font style=&quot;font-size: 26px;&quot;&gt;Scan consumable&lt;/font&gt;" style="text;html=1;align=right;verticalAlign=middle;whiteSpace=wrap;rounded=0;fontSize=20;" vertex="1" parent="ih_uVpgDDXR5YDSlljtD-370">
          <mxGeometry x="120" y="465" width="210" height="30" as="geometry" />
        </mxCell>
        <mxCell id="ih_uVpgDDXR5YDSlljtD-417" value="&lt;span style=&quot;font-size: 34px;&quot;&gt;Attach&lt;/span&gt;" style="rounded=1;whiteSpace=wrap;html=1;fillColor=#3b9edd;fontColor=#ffffff;strokeColor=#001DBC;" vertex="1" parent="ih_uVpgDDXR5YDSlljtD-370">
          <mxGeometry x="120" y="1450" width="1850" height="80" as="geometry" />
        </mxCell>
        <mxCell id="ih_uVpgDDXR5YDSlljtD-418" value="&lt;font style=&quot;font-size: 32px;&quot;&gt;No Data Found&lt;/font&gt;" style="rounded=0;whiteSpace=wrap;html=1;align=center;" vertex="1" parent="ih_uVpgDDXR5YDSlljtD-370">
          <mxGeometry x="340.67" y="511.5" width="1630" height="308.5" as="geometry" />
        </mxCell>
        <mxCell id="ih_uVpgDDXR5YDSlljtD-421" style="edgeStyle=orthogonalEdgeStyle;rounded=0;orthogonalLoop=1;jettySize=auto;html=1;exitX=0.5;exitY=1;exitDx=0;exitDy=0;fontFamily=Helvetica;fontSize=16;fontColor=default;dashed=1;strokeWidth=4;strokeColor=#CC99FF;" edge="1" parent="1" source="ih_uVpgDDXR5YDSlljtD-231" target="ih_uVpgDDXR5YDSlljtD-418">
          <mxGeometry relative="1" as="geometry">
            <Array as="points">
              <mxPoint x="2513" y="210" />
              <mxPoint x="3236" y="210" />
            </Array>
          </mxGeometry>
        </mxCell>
        <mxCell id="ih_uVpgDDXR5YDSlljtD-422" value="&lt;font style=&quot;font-size: 33px;&quot;&gt;No Data Found&lt;/font&gt;" style="edgeLabel;html=1;align=center;verticalAlign=middle;resizable=0;points=[];pointerEvents=1;strokeColor=inherit;fontFamily=Helvetica;fontSize=16;fontColor=default;fillColor=none;" vertex="1" connectable="0" parent="ih_uVpgDDXR5YDSlljtD-421">
          <mxGeometry x="0.2062" y="-6" relative="1" as="geometry">
            <mxPoint x="1" as="offset" />
          </mxGeometry>
        </mxCell>
      </root>
    </mxGraphModel>
  </diagram>
</mxfile>
